{"glyphs":{"0":{"ha":1138,"x_min":0,"x_max":0,"o":"m 568 992 b 42 486 289 992 42 857 b 568 -21 42 114 289 -21 b 1096 486 849 -21 1096 114 b 568 992 1096 857 849 992 z m 568 189 b 349 486 397 189 349 329 b 568 783 349 642 397 783 b 788 486 740 783 788 642 b 568 189 788 329 740 189 z "},"1":{"ha":649,"x_min":0,"x_max":0,"o":"m 358 972 l 42 775 l 42 565 l 276 711 l 276 0 l 579 0 l 579 972 z "},"2":{"ha":1079,"x_min":0,"x_max":0,"o":"m 376 210 b 1028 679 504 379 1028 293 b 561 992 1028 918 793 992 b 69 667 292 992 83 893 l 375 667 b 557 793 388 761 457 793 b 725 678 656 793 725 760 b 28 0 725 457 47 572 l 1038 0 l 1038 210 z "},"3":{"ha":1093,"x_min":0,"x_max":0,"o":"m 854 522 b 1017 722 946 558 1017 621 b 547 992 1017 943 806 992 b 57 706 265 992 72 915 l 363 706 b 543 793 379 786 450 793 b 721 699 660 793 721 768 b 582 607 721 633 672 607 l 393 607 l 393 408 l 582 408 b 757 306 686 408 757 397 b 556 189 757 211 672 189 b 333 293 438 189 346 207 l 28 293 b 547 -21 35 60 256 -21 b 1065 296 832 -21 1065 46 b 854 522 1065 431 968 493 z "},"4":{"ha":1129,"x_min":0,"x_max":0,"o":"m 1101 367 l 929 367 l 929 972 l 546 972 l 28 381 l 28 169 l 626 169 l 626 0 l 929 0 l 929 169 l 1101 169 z m 315 367 l 626 731 l 626 367 z "},"5":{"ha":1067,"x_min":0,"x_max":0,"o":"m 604 657 b 346 592 506 657 414 629 l 371 761 l 971 761 l 971 972 l 149 972 l 67 414 l 340 414 b 538 478 375 446 440 478 b 731 336 675 478 731 428 b 538 189 731 243 667 189 b 333 279 428 189 358 219 l 28 279 b 528 -21 51 78 282 -21 b 1039 335 778 -21 1039 63 b 604 657 1039 596 814 657 z "},"6":{"ha":1110,"x_min":0,"x_max":0,"o":"m 608 643 b 351 544 494 643 404 606 b 582 783 363 701 426 783 b 749 714 649 783 722 775 l 1063 714 b 582 992 1042 926 797 992 b 42 486 301 992 42 881 b 582 -21 42 90 289 -21 b 1082 328 856 -21 1082 61 b 608 643 1082 558 878 643 z m 582 189 b 378 328 460 189 378 215 b 594 460 378 440 472 460 b 775 328 706 460 775 418 b 582 189 775 236 721 189 z "},"7":{"ha":1039,"x_min":0,"x_max":0,"o":"m 28 972 l 28 761 l 714 761 b 203 0 601 683 236 432 l 536 0 b 1011 761 597 469 876 646 l 1011 972 z "},"8":{"ha":1147,"x_min":0,"x_max":0,"o":"m 922 525 b 1067 710 1008 558 1067 614 b 574 992 1064 900 886 992 b 81 710 261 992 83 900 b 225 525 81 614 139 558 b 28 288 113 492 31 424 b 574 -21 32 28 296 -21 b 1119 288 851 -21 1115 28 b 922 525 1117 424 1035 492 z m 574 796 b 772 693 700 796 772 771 b 574 597 772 608 663 597 b 375 693 485 597 375 608 b 574 796 375 771 447 796 z m 574 189 b 349 301 443 189 349 206 b 574 428 349 397 436 428 b 799 301 711 428 799 397 b 574 189 799 206 704 189 z "},"9":{"ha":1110,"x_min":0,"x_max":0,"o":"m 528 992 b 28 643 254 992 28 910 b 501 328 28 413 232 328 b 758 428 615 328 706 367 b 528 189 747 269 683 189 b 361 258 461 189 388 196 l 47 258 b 528 -21 68 44 313 -21 b 1068 486 808 -21 1068 90 b 528 992 1068 881 821 992 z m 515 511 b 335 643 404 511 335 553 b 528 783 335 735 389 783 b 732 643 650 783 732 756 b 515 511 732 531 638 511 z "},"B":{"ha":1244,"x_min":0,"x_max":0,"o":"m 999 511 l 999 513 b 1167 722 1103 546 1167 608 b 776 972 1167 921 1010 972 l 69 972 l 69 0 l 747 0 b 1203 286 1051 0 1203 63 b 999 511 1203 413 1124 479 z m 743 747 b 846 671 825 747 846 715 b 743 590 846 626 825 590 l 399 590 l 399 747 z m 760 224 l 399 224 l 399 392 l 760 392 b 869 314 846 392 869 360 b 760 224 869 263 849 224 z "},"C":{"ha":1289,"x_min":0,"x_max":0,"o":"m 649 201 b 375 486 461 201 375 314 b 649 769 375 657 461 769 b 910 574 806 769 879 697 l 1247 574 b 649 992 1201 878 938 992 b 42 486 332 992 42 857 b 649 -21 42 114 332 -21 b 1247 397 938 -21 1201 93 l 910 397 b 649 201 879 274 806 201 z "},"D":{"ha":1243,"x_min":0,"x_max":0,"o":"m 589 972 l 69 972 l 69 0 l 589 0 b 1201 486 893 0 1201 76 b 589 972 1201 894 893 972 z m 515 224 l 399 224 l 399 747 l 515 747 b 868 486 711 747 868 736 b 515 224 868 235 711 224 z "},"E":{"ha":1097,"x_min":0,"x_max":0,"o":"m 1042 224 l 399 224 l 399 386 l 989 386 l 989 611 l 399 611 l 399 747 l 1028 747 l 1028 972 l 69 972 l 69 0 l 1042 0 z "},"F":{"ha":1071,"x_min":0,"x_max":0,"o":"m 1029 747 l 1029 972 l 69 972 l 69 0 l 400 0 l 400 360 l 990 360 l 990 585 l 400 585 l 400 747 z "},"G":{"ha":1319,"x_min":0,"x_max":0,"o":"m 1274 578 l 646 578 l 646 340 l 938 340 b 688 201 910 268 839 201 b 375 486 499 201 375 300 b 660 769 375 671 471 769 b 914 647 800 769 871 725 l 1253 647 b 661 992 1190 892 943 992 b 42 486 349 992 42 857 b 686 -21 42 114 344 -21 b 1274 578 1063 -21 1311 151 z "},"H":{"ha":1285,"x_min":0,"x_max":0,"o":"m 886 972 l 886 617 l 400 617 l 400 972 l 69 972 l 69 0 l 400 0 l 400 381 l 886 381 l 886 0 l 1215 0 l 1215 972 z "},"I":{"ha":469,"x_min":0,"x_max":0,"o":"m 69 972 l 69 0 l 400 0 l 400 972 z "},"J":{"ha":1125,"x_min":0,"x_max":0,"o":"m 726 972 l 726 436 b 551 201 726 279 682 201 b 357 407 413 201 357 265 l 357 499 l 42 499 l 42 390 b 551 -21 42 68 257 -21 b 1056 436 828 -21 1056 43 l 1056 972 z "},"K":{"ha":1229,"x_min":0,"x_max":0,"o":"m 831 0 l 1215 0 l 772 597 l 1196 972 l 789 972 l 399 617 l 399 972 l 69 972 l 69 0 l 399 0 l 399 268 l 549 401 z "},"L":{"ha":1071,"x_min":0,"x_max":0,"o":"m 1029 224 l 399 224 l 399 972 l 69 972 l 69 0 l 1029 0 z "},"M":{"ha":1556,"x_min":0,"x_max":0,"o":"m 1006 972 l 778 333 l 550 972 l 69 972 l 69 0 l 399 0 l 399 632 l 632 0 l 924 0 l 1157 632 l 1157 0 l 1486 0 l 1486 972 z "},"N":{"ha":1258,"x_min":0,"x_max":0,"o":"m 860 972 l 860 393 l 418 972 l 69 972 l 69 0 l 399 0 l 399 578 l 840 0 l 1189 0 l 1189 972 z "},"O":{"ha":1349,"x_min":0,"x_max":0,"o":"m 674 992 b 42 486 358 992 42 857 b 674 -21 42 114 358 -21 b 1307 486 989 -21 1307 114 b 674 992 1307 857 989 992 z m 674 201 b 375 486 483 201 375 308 b 674 769 375 663 483 769 b 972 486 865 769 972 663 b 674 201 972 308 865 201 z "},"P":{"ha":1204,"x_min":0,"x_max":0,"o":"m 760 972 l 69 972 l 69 0 l 399 0 l 399 303 l 721 303 b 1163 643 989 303 1163 399 b 760 972 1163 842 1028 972 z m 682 525 l 399 525 l 399 747 l 682 747 b 828 643 779 747 828 719 b 682 525 828 568 785 525 z "},"Q":{"ha":1349,"x_min":0,"x_max":0,"o":"m 1307 486 b 674 992 1307 857 989 992 b 42 486 358 992 42 857 b 674 -21 42 114 358 -21 b 967 25 775 -21 876 -7 l 992 0 l 1307 0 l 1168 142 b 1307 486 1253 221 1307 333 z m 674 201 b 375 486 483 201 375 308 b 674 769 375 663 483 769 b 972 486 865 769 972 663 b 951 364 972 440 965 400 l 911 406 l 597 406 l 782 215 b 674 201 750 207 714 201 z "},"R":{"ha":1222,"x_min":0,"x_max":0,"o":"m 854 0 l 1208 0 l 978 358 b 1176 650 1101 408 1176 503 b 761 972 1176 849 1029 972 l 69 972 l 69 0 l 399 0 l 399 315 l 657 315 z m 399 747 l 714 747 b 842 650 801 747 842 714 b 714 538 842 588 811 538 l 399 538 z "},"S":{"ha":1210,"x_min":0,"x_max":0,"o":"m 665 607 b 378 696 499 624 378 629 b 581 771 378 751 447 771 b 785 675 707 771 785 742 l 1119 675 b 585 992 1119 843 997 992 b 50 681 207 992 50 878 b 454 378 50 486 156 424 b 828 274 733 335 828 339 b 619 200 828 219 750 200 b 372 315 483 200 372 225 l 28 315 b 601 -21 28 111 190 -21 b 1182 308 983 -21 1182 75 b 665 607 1182 554 969 575 z "},"T":{"ha":1149,"x_min":0,"x_max":0,"o":"m 1107 972 l 42 972 l 42 747 l 410 747 l 410 0 l 739 0 l 739 747 l 1107 747 z "},"U":{"ha":1219,"x_min":0,"x_max":0,"o":"m 821 972 l 821 433 b 610 201 821 235 740 201 b 399 433 478 201 399 235 l 399 972 l 69 972 l 69 407 b 610 -21 69 31 333 -21 b 1150 407 886 -21 1150 31 l 1150 972 z "},"V":{"ha":1279,"x_min":0,"x_max":0,"o":"m 936 972 l 639 244 l 342 972 l 0 972 l 449 0 l 829 0 l 1279 972 z "},"W":{"ha":1689,"x_min":0,"x_max":0,"o":"m 1346 972 l 1167 318 l 989 972 l 699 972 l 521 318 l 342 972 l 0 972 l 317 0 l 685 0 l 844 585 l 1003 0 l 1371 0 l 1689 972 z "},"X":{"ha":1221,"x_min":0,"x_max":0,"o":"m 800 507 l 1186 972 l 807 972 l 610 703 l 413 972 l 35 972 l 421 507 l 0 0 l 378 0 l 610 311 l 843 0 l 1221 0 z "},"Y":{"ha":1229,"x_min":0,"x_max":0,"o":"m 864 972 l 614 585 l 365 972 l 0 972 l 450 344 l 450 0 l 779 0 l 779 344 l 1229 972 z "},"Z":{"ha":1175,"x_min":0,"x_max":0,"o":"m 519 224 l 1121 774 l 1121 972 l 68 972 l 68 747 l 643 747 l 42 197 l 42 0 l 1133 0 l 1133 224 z "},"a":{"ha":979,"x_min":0,"x_max":0,"o":"m 479 760 b 64 515 239 760 90 696 l 340 515 b 479 589 350 561 372 589 b 621 474 608 589 621 544 l 621 464 b 28 200 117 492 28 367 b 356 -21 28 54 146 -21 b 621 79 482 -21 576 31 l 621 0 l 924 0 l 924 474 b 479 760 924 722 718 760 z m 621 211 b 432 132 581 164 510 132 b 322 207 364 132 322 151 b 621 296 322 296 436 304 z "},"b":{"ha":1043,"x_min":0,"x_max":0,"o":"m 610 760 b 358 651 510 760 421 722 l 358 972 l 56 972 l 56 0 l 358 0 l 358 89 b 610 -21 421 17 510 -21 b 1015 369 839 -21 1015 118 b 610 760 1015 621 839 760 z m 532 176 b 332 369 389 176 332 261 b 532 563 332 478 389 563 b 725 369 665 563 725 469 b 532 176 725 269 665 176 z "},"c":{"ha":1006,"x_min":0,"x_max":0,"o":"m 511 176 b 318 369 371 176 318 269 b 511 563 318 469 371 563 b 697 438 619 563 678 508 l 978 438 b 511 760 940 672 721 760 b 28 369 283 760 28 656 b 511 -21 28 83 283 -21 b 978 303 721 -21 940 67 l 697 303 b 511 176 678 232 619 176 z "},"d":{"ha":1042,"x_min":0,"x_max":0,"o":"m 683 972 l 683 651 b 432 760 621 722 532 760 b 28 369 203 760 28 621 b 432 -21 28 118 203 -21 b 683 89 532 -21 621 17 l 683 0 l 986 0 l 986 972 z m 511 176 b 317 369 378 176 317 269 b 511 563 317 469 378 563 b 710 369 654 563 710 478 b 511 176 710 261 654 176 z "},"e":{"ha":982,"x_min":0,"x_max":0,"o":"m 499 760 b 28 369 269 760 28 656 b 506 -21 28 83 268 -21 b 942 250 707 -21 894 47 l 672 250 b 506 164 647 213 601 164 b 313 301 383 164 331 225 l 953 301 b 499 760 974 646 708 760 z m 318 456 b 499 575 339 524 393 575 b 669 456 592 575 647 532 z "},"f":{"ha":658,"x_min":0,"x_max":0,"o":"m 644 826 l 644 1015 b 465 1025 590 1019 522 1025 b 136 740 196 1025 136 906 l 14 740 l 14 569 l 136 569 l 136 0 l 439 0 l 439 569 l 631 569 l 631 740 l 439 740 b 644 826 439 842 518 840 z "},"g":{"ha":1042,"x_min":0,"x_max":0,"o":"m 683 740 l 683 665 b 432 760 621 729 532 760 b 28 396 203 760 28 647 b 432 46 28 144 203 46 b 683 133 532 46 621 72 l 683 68 b 488 -74 683 -58 590 -74 b 325 -21 407 -74 339 -61 l 42 -21 b 488 -258 49 -171 197 -258 b 986 68 728 -258 986 -225 l 986 740 z m 511 229 b 317 396 382 229 317 296 b 511 563 317 496 382 563 b 710 396 649 563 710 504 b 511 229 710 288 649 229 z "},"h":{"ha":996,"x_min":0,"x_max":0,"o":"m 618 760 b 358 646 476 760 388 685 l 358 972 l 56 972 l 56 0 l 358 0 l 358 407 b 500 553 358 490 397 553 b 638 407 604 553 638 489 l 638 0 l 940 0 l 940 476 b 618 760 940 665 822 760 z "},"i":{"ha":414,"x_min":0,"x_max":0,"o":"m 207 796 b 364 939 299 796 364 847 b 207 1083 364 1031 299 1083 b 50 939 115 1083 50 1031 b 207 796 50 847 115 796 z m 56 0 l 358 0 l 358 740 l 56 740 z "},"j":{"ha":414,"x_min":0,"x_max":0,"o":"m 207 796 b 364 939 299 796 364 847 b 207 1083 364 1031 299 1083 b 50 939 115 1083 50 1031 b 207 796 50 847 115 796 z m 56 39 b -76 -36 56 -21 43 -43 l -76 -253 b 79 -258 -35 -257 22 -258 b 358 39 319 -258 358 -117 l 358 740 l 56 740 z "},"k":{"ha":986,"x_min":0,"x_max":0,"o":"m 631 0 l 972 0 l 635 439 l 957 740 l 592 740 l 360 511 l 360 972 l 56 972 l 56 0 l 360 0 l 360 179 l 442 257 z "},"l":{"ha":414,"x_min":0,"x_max":0,"o":"m 56 1025 l 56 0 l 358 0 l 358 1025 z "},"m":{"ha":1472,"x_min":0,"x_max":0,"o":"m 1108 760 b 847 650 971 760 886 693 b 592 760 803 724 719 760 b 358 650 454 760 383 689 l 358 740 l 56 740 l 56 0 l 358 0 l 358 407 b 474 553 358 490 372 553 b 585 407 575 553 585 489 l 585 0 l 888 0 l 888 407 b 1004 553 888 490 903 553 b 1114 407 1106 553 1114 489 l 1114 0 l 1417 0 l 1417 476 b 1108 760 1417 665 1313 760 z "},"n":{"ha":996,"x_min":0,"x_max":0,"o":"m 618 760 b 358 646 475 760 388 685 l 358 740 l 56 740 l 56 0 l 358 0 l 358 407 b 500 553 358 490 396 553 b 638 407 604 553 638 489 l 638 0 l 940 0 l 940 476 b 618 760 940 665 822 760 z "},"o":{"ha":1024,"x_min":0,"x_max":0,"o":"m 513 760 b 28 369 283 760 28 656 b 513 -21 28 83 283 -21 b 996 369 740 -21 996 83 b 513 760 996 656 740 760 z m 513 176 b 318 369 371 176 318 269 b 513 563 318 469 371 563 b 706 369 653 563 706 469 b 513 176 706 269 653 176 z "},"p":{"ha":1043,"x_min":0,"x_max":0,"o":"m 610 760 b 358 651 510 760 421 722 l 358 740 l 56 740 l 56 -232 l 358 -232 l 358 89 b 610 -21 421 17 510 -21 b 1015 369 839 -21 1015 118 b 610 760 1015 621 839 760 z m 532 176 b 332 369 389 176 332 261 b 532 563 332 478 389 563 b 725 369 665 563 725 469 b 532 176 725 269 665 176 z "},"q":{"ha":1042,"x_min":0,"x_max":0,"o":"m 683 740 l 683 651 b 432 760 622 722 533 760 b 28 369 204 760 28 621 b 432 -21 28 118 204 -21 b 683 89 533 -21 622 17 l 683 -232 l 986 -232 l 986 740 z m 511 176 b 318 369 378 176 318 269 b 511 563 318 469 378 563 b 710 369 654 563 710 478 b 511 176 710 261 654 176 z "},"r":{"ha":764,"x_min":0,"x_max":0,"o":"m 629 760 b 358 626 468 760 386 675 l 358 740 l 56 740 l 56 0 l 358 0 l 358 315 b 557 525 358 431 401 525 b 711 492 624 525 674 507 l 736 492 l 736 747 b 629 760 711 756 676 760 z "},"s":{"ha":978,"x_min":0,"x_max":0,"o":"m 535 472 b 331 538 408 488 331 490 b 468 592 331 575 368 592 b 610 515 564 592 610 564 l 911 515 b 471 760 911 657 789 760 b 44 514 192 760 44 676 b 367 292 44 358 160 322 b 636 207 547 265 636 264 b 497 149 636 164 588 149 b 331 240 394 149 331 168 l 14 240 b 483 -21 14 64 171 -21 b 950 233 774 -21 950 43 b 535 472 950 426 760 446 z "},"t":{"ha":726,"x_min":0,"x_max":0,"o":"m 685 569 l 685 740 l 468 740 l 468 932 l 165 932 l 165 740 l 28 740 l 28 569 l 165 569 l 165 296 b 511 -12 165 75 232 -12 b 685 -1 568 -12 633 -8 l 685 204 b 468 296 536 192 468 192 l 468 569 z "},"u":{"ha":997,"x_min":0,"x_max":0,"o":"m 638 740 l 638 332 b 496 188 638 250 600 188 b 358 332 392 188 358 250 l 358 740 l 56 740 l 56 263 b 379 -21 56 74 174 -21 b 638 93 521 -21 608 56 l 638 0 l 942 0 l 942 740 z "},"v":{"ha":989,"x_min":0,"x_max":0,"o":"m 663 740 l 488 294 l 311 740 l 0 740 l 344 0 l 629 0 l 975 740 z "},"w":{"ha":1468,"x_min":0,"x_max":0,"o":"m 1142 740 l 1003 332 l 857 740 l 597 740 l 451 332 l 313 740 l 0 740 l 306 0 l 578 0 l 728 415 l 876 0 l 1149 0 l 1454 740 z "},"x":{"ha":996,"x_min":0,"x_max":0,"o":"m 675 375 l 975 740 l 632 740 l 499 540 l 364 740 l 21 740 l 321 375 l 0 0 l 343 0 l 499 208 l 654 0 l 996 0 z "},"y":{"ha":989,"x_min":0,"x_max":0,"o":"m 664 740 l 493 301 l 313 740 l 0 740 l 354 10 l 224 -232 l 531 -232 l 975 740 z "},"z":{"ha":957,"x_min":0,"x_max":0,"o":"m 465 197 l 901 556 l 901 740 l 68 740 l 68 543 l 479 543 l 42 183 l 42 0 l 915 0 l 915 197 z "},"•":{"ha":560,"x_min":0,"x_max":0,"o":"m 281 282 b 504 486 411 282 504 356 b 281 692 504 617 411 692 b 56 486 149 692 56 617 b 281 282 56 356 149 282 z "},".":{"ha":385,"x_min":0,"x_max":0,"o":"m 192 281 b 42 131 108 281 42 213 b 192 -21 42 47 108 -21 b 343 131 275 -21 343 47 b 192 281 343 213 275 281 z "},",":{"ha":386,"x_min":0,"x_max":0,"o":"m 83 204 l 28 -128 l 225 -128 l 358 204 z "},":":{"ha":385,"x_min":0,"x_max":0,"o":"m 192 281 b 42 131 110 281 42 213 b 192 -21 42 47 110 -21 b 343 131 275 -21 343 47 b 192 281 343 213 275 281 z m 192 460 b 343 610 275 460 343 526 b 192 760 343 693 275 760 b 42 610 110 760 42 693 b 192 460 42 526 110 460 z "},";":{"ha":393,"x_min":0,"x_max":0,"o":"m 215 460 b 365 610 299 460 365 526 b 215 760 365 693 299 760 b 64 610 132 760 64 693 b 215 460 64 526 132 460 z m 28 -128 l 225 -128 l 358 204 l 83 204 z "},"!":{"ha":425,"x_min":0,"x_max":0,"o":"m 213 281 b 63 131 129 281 63 213 b 213 -21 63 47 129 -21 b 363 131 296 -21 363 47 b 213 281 363 213 296 281 z m 331 329 l 383 972 l 42 972 l 94 329 z "},"?":{"ha":1003,"x_min":0,"x_max":0,"o":"m 492 992 b 28 656 215 992 46 899 l 333 656 b 500 793 338 758 408 793 b 672 701 597 793 672 775 b 343 329 672 546 343 610 l 618 329 b 975 710 618 497 975 435 b 492 992 975 938 751 992 z m 485 281 b 335 131 401 281 335 213 b 485 -21 335 47 401 -21 b 635 131 568 -21 635 47 b 485 281 635 213 568 281 z "},"¿":{"ha":1001,"x_min":0,"x_max":0,"o":"m 668 83 b 501 -53 664 -19 593 -53 b 329 39 404 -53 329 -35 b 658 411 329 193 658 131 l 383 411 b 28 31 383 243 28 306 b 510 -251 28 -199 250 -251 b 974 83 786 -251 956 -158 z m 517 460 b 668 610 600 460 668 526 b 517 760 668 693 600 760 b 367 610 435 760 367 693 b 517 460 367 526 435 460 z "},"¡":{"ha":425,"x_min":0,"x_max":0,"o":"m 213 460 b 363 610 296 460 363 526 b 213 760 363 693 296 760 b 63 610 129 760 63 693 b 213 460 63 526 129 460 z m 331 411 l 94 411 l 42 -232 l 383 -232 z "},"-":{"ha":660,"x_min":0,"x_max":0,"o":"m 69 490 l 69 292 l 590 292 l 590 490 z "},"–":{"ha":883,"x_min":0,"x_max":0,"o":"m 69 490 l 69 292 l 814 292 l 814 490 z "},"—":{"ha":1028,"x_min":0,"x_max":0,"o":"m 69 490 l 69 292 l 958 292 l 958 490 z "},"−":{"ha":806,"x_min":0,"x_max":0,"o":"m 69 543 l 69 344 l 736 344 l 736 543 z "},"_":{"ha":1053,"x_min":0,"x_max":0,"o":"m 28 -86 l 28 -217 l 1025 -217 l 1025 -86 z "},"+":{"ha":804,"x_min":0,"x_max":0,"o":"m 735 543 l 501 543 l 501 776 l 304 776 l 304 543 l 69 543 l 69 344 l 304 344 l 304 111 l 501 111 l 501 344 l 735 344 z "},"×":{"ha":750,"x_min":0,"x_max":0,"o":"m 681 610 l 540 749 l 375 583 l 210 749 l 69 610 l 236 443 l 69 278 l 210 139 l 375 304 l 540 139 l 681 278 l 515 443 z "},"÷":{"ha":804,"x_min":0,"x_max":0,"o":"m 403 283 b 282 163 336 283 282 229 b 403 42 282 96 336 42 b 522 163 469 42 522 96 b 403 283 522 229 469 283 z m 403 604 b 522 725 469 604 522 658 b 403 846 522 792 469 846 b 282 725 336 846 282 792 b 403 604 282 658 336 604 z m 69 543 l 69 344 l 735 344 l 735 543 z "},"=":{"ha":804,"x_min":0,"x_max":0,"o":"m 69 674 l 69 476 l 735 476 l 735 674 z m 69 213 l 735 213 l 735 411 l 69 411 z "},"≠":{"ha":806,"x_min":0,"x_max":0,"o":"m 736 476 l 736 674 l 621 674 l 697 797 l 544 797 l 469 674 l 69 674 l 69 476 l 347 476 l 306 411 l 69 411 l 69 213 l 185 213 l 108 90 l 261 90 l 336 213 l 736 213 l 736 411 l 458 411 l 499 476 z "},"<":{"ha":804,"x_min":0,"x_max":0,"o":"m 735 811 l 69 525 l 69 363 l 735 76 l 735 275 l 317 443 l 735 613 z "},">":{"ha":804,"x_min":0,"x_max":0,"o":"m 69 811 l 69 613 l 488 443 l 69 275 l 69 76 l 735 363 l 735 525 z "},"±":{"ha":806,"x_min":0,"x_max":0,"o":"m 69 0 l 736 0 l 736 183 l 69 183 z m 501 600 l 501 781 l 304 781 l 304 600 l 69 600 l 69 403 l 304 403 l 304 221 l 501 221 l 501 403 l 736 403 l 736 600 z "},"≤":{"ha":806,"x_min":0,"x_max":0,"o":"m 69 0 l 736 0 l 736 183 l 69 183 z m 736 810 l 69 583 l 69 418 l 736 192 l 736 390 l 369 501 l 736 611 z "},"≥":{"ha":804,"x_min":0,"x_max":0,"o":"m 69 0 l 735 0 l 735 183 l 69 183 z m 69 810 l 69 611 l 436 501 l 69 390 l 69 192 l 735 418 l 735 583 z "},"«":{"ha":728,"x_min":0,"x_max":0,"o":"m 42 276 l 331 57 l 331 296 l 190 390 l 331 486 l 331 725 l 42 506 z m 672 725 l 382 506 l 382 276 l 672 57 l 672 296 l 532 390 l 672 486 z "},"»":{"ha":729,"x_min":0,"x_max":0,"o":"m 397 725 l 397 486 l 539 390 l 397 296 l 397 57 l 688 276 l 688 506 z m 56 486 l 197 390 l 56 296 l 56 57 l 346 276 l 346 506 l 56 725 z "},"~":{"ha":806,"x_min":0,"x_max":0,"o":"m 590 486 b 240 599 465 486 383 599 b 69 515 158 599 115 560 l 69 313 b 228 396 106 354 160 396 b 576 286 349 396 450 286 b 736 356 674 286 717 332 l 736 560 b 590 486 696 511 657 486 z "},"≈":{"ha":806,"x_min":0,"x_max":0,"o":"m 590 632 b 242 744 465 632 383 744 b 69 661 158 744 115 706 l 69 457 b 228 542 106 499 160 542 b 576 432 349 542 450 432 b 736 501 674 432 717 478 l 736 706 b 590 632 696 656 657 632 z m 590 340 b 242 454 465 340 383 454 b 69 371 158 454 115 414 l 69 167 b 228 250 106 208 160 250 b 576 142 349 250 450 142 b 736 210 674 142 717 186 l 736 414 b 590 340 696 365 657 340 z "},"^":{"ha":779,"x_min":0,"x_max":0,"o":"m 751 503 l 490 944 l 289 944 l 28 503 l 226 503 l 390 786 l 553 503 z "},"†":{"ha":921,"x_min":0,"x_max":0,"o":"m 879 681 l 592 681 l 592 972 l 329 972 l 329 681 l 42 681 l 42 469 l 329 469 l 329 -258 l 592 -258 l 592 469 l 879 469 z "},"‡":{"ha":921,"x_min":0,"x_max":0,"o":"m 879 469 l 879 681 l 592 681 l 592 972 l 328 972 l 328 681 l 42 681 l 42 469 l 328 469 l 328 243 l 42 243 l 42 33 l 328 33 l 328 -258 l 592 -258 l 592 33 l 879 33 l 879 243 l 592 243 l 592 469 z "},"¶":{"ha":958,"x_min":0,"x_max":0,"o":"m 390 972 b 14 656 176 972 14 876 b 376 339 14 439 169 343 l 376 -246 l 588 -246 l 588 788 l 693 788 l 693 -246 l 903 -246 l 903 972 z "},"/":{"ha":722,"x_min":0,"x_max":0,"o":"m 468 1025 l 14 -53 l 254 -53 l 708 1025 z "},"{":{"ha":615,"x_min":0,"x_max":0,"o":"m 432 549 l 432 817 b 497 893 432 876 450 893 l 588 893 l 588 1090 l 353 1090 b 163 893 222 1090 163 1024 l 163 610 b 42 501 163 507 114 501 l 42 299 b 163 190 114 299 163 293 l 163 -93 b 353 -290 163 -224 222 -290 l 588 -290 l 588 -93 l 497 -93 b 432 -15 450 -93 432 -76 l 432 251 b 311 397 432 343 383 386 l 311 403 b 432 549 383 415 432 457 z "},"[":{"ha":560,"x_min":0,"x_max":0,"o":"m 532 893 l 532 1090 l 42 1090 l 42 -290 l 532 -290 l 532 -93 l 319 -93 l 319 893 z "},"(":{"ha":565,"x_min":0,"x_max":0,"o":"m 538 1046 l 321 1046 b 28 414 218 951 28 761 b 321 -219 28 65 218 -125 l 538 -219 b 315 414 439 -114 315 108 b 538 1046 315 718 439 940 z "},"|":{"ha":401,"x_min":0,"x_max":0,"o":"m 69 1090 l 69 -290 l 332 -290 l 332 1090 z "},"¦":{"ha":401,"x_min":0,"x_max":0,"o":"m 69 -290 l 332 -290 l 332 301 l 69 301 z m 69 1090 l 69 500 l 332 500 l 332 1090 z "},")":{"ha":565,"x_min":0,"x_max":0,"o":"m 244 1046 l 28 1046 b 250 414 126 940 250 718 b 28 -219 250 108 126 -114 l 244 -219 b 538 414 347 -125 538 65 b 244 1046 538 761 347 951 z "},"]":{"ha":560,"x_min":0,"x_max":0,"o":"m 28 1090 l 28 893 l 240 893 l 240 -93 l 28 -93 l 28 -290 l 518 -290 l 518 1090 z "},"}":{"ha":615,"x_min":0,"x_max":0,"o":"m 453 610 l 453 893 b 263 1090 453 1024 393 1090 l 28 1090 l 28 893 l 118 893 b 183 817 165 893 183 876 l 183 549 b 304 403 183 457 232 415 l 304 397 b 183 251 232 386 183 343 l 183 -15 b 118 -93 183 -76 165 -93 l 28 -93 l 28 -290 l 263 -290 b 453 -93 393 -290 453 -224 l 453 190 b 574 299 453 293 501 299 l 574 501 b 453 610 501 501 453 507 z "},"\\":{"ha":722,"x_min":0,"x_max":0,"o":"m 254 1025 l 14 1025 l 468 -53 l 708 -53 z "},"$":{"ha":1210,"x_min":0,"x_max":0,"o":"m 1182 310 b 671 607 1182 554 972 576 l 671 765 b 785 676 743 754 785 725 l 1121 676 b 671 990 1121 832 1015 971 l 671 1129 l 539 1129 l 539 993 b 51 682 196 983 51 871 b 454 379 51 488 157 425 b 539 367 485 375 513 371 l 539 206 b 374 317 443 215 374 246 l 28 317 b 539 -18 28 122 175 -6 l 539 -158 l 671 -158 l 671 -18 b 1182 310 1008 -7 1182 92 z m 379 697 b 539 772 379 746 435 768 l 539 621 b 379 697 442 633 379 650 z m 671 203 l 671 349 b 828 276 785 332 828 319 b 671 203 828 228 771 207 z "},"¢":{"ha":1006,"x_min":0,"x_max":0,"o":"m 582 303 l 582 669 b 697 553 646 651 682 607 l 978 553 b 582 872 944 763 768 854 l 582 972 l 450 972 l 450 874 b 28 486 239 856 28 746 b 450 99 28 225 239 115 l 450 0 l 582 0 l 582 99 b 978 418 768 117 944 208 l 697 418 b 582 303 682 365 646 321 z m 318 486 b 450 671 318 569 356 647 l 450 300 b 318 486 356 324 318 401 z "},"₽":{"ha":1314,"x_min":0,"x_max":0,"o":"m 831 303 b 1272 644 1099 303 1272 399 b 869 972 1272 842 1139 972 l 179 972 l 179 525 l 56 525 l 56 303 l 179 303 l 179 249 l 56 249 l 56 118 l 179 118 l 179 0 l 508 0 l 508 118 l 913 118 l 913 249 l 508 249 l 508 303 z m 508 747 l 792 747 b 938 644 889 747 938 719 b 792 525 938 568 894 525 l 508 525 z "},"₿":{"ha":1246,"x_min":0,"x_max":0,"o":"m 1204 286 b 999 511 1204 413 1125 479 l 999 513 b 1167 722 1103 546 1167 608 b 828 971 1167 907 1033 964 l 828 1129 l 696 1129 l 696 972 l 564 972 l 564 1129 l 432 1129 l 432 972 l 69 972 l 69 0 l 432 0 l 432 -158 l 564 -158 l 564 0 l 696 0 l 696 -158 l 828 -158 l 828 1 b 1204 286 1078 13 1204 83 z m 743 747 b 847 671 825 747 847 715 b 743 590 847 626 825 590 l 400 590 l 400 747 z m 760 224 l 400 224 l 400 392 l 760 392 b 869 314 846 392 869 360 b 760 224 869 263 849 224 z "},"€":{"ha":1397,"x_min":0,"x_max":0,"o":"m 757 201 b 515 333 633 201 554 251 l 885 333 l 885 465 l 485 465 b 485 486 485 472 485 479 b 485 506 485 493 485 499 l 885 506 l 885 638 l 515 638 b 757 769 554 721 633 769 b 1018 574 914 769 988 697 l 1356 574 b 757 992 1310 878 1046 992 b 169 638 489 992 239 894 l 28 638 l 28 506 l 151 506 b 150 486 151 499 150 493 b 151 465 150 479 151 472 l 28 465 l 28 333 l 169 333 b 757 -21 239 76 489 -21 b 1356 399 1046 -21 1310 93 l 1018 399 b 757 201 988 274 914 201 z "},"¥":{"ha":1229,"x_min":0,"x_max":0,"o":"m 1229 972 l 864 972 l 614 585 l 364 972 l 0 972 l 365 463 l 186 463 l 186 331 l 450 331 l 450 290 l 186 290 l 186 158 l 450 158 l 450 0 l 779 0 l 779 158 l 1043 158 l 1043 290 l 779 290 l 779 331 l 1043 331 l 1043 463 l 864 463 z "},"£":{"ha":1085,"x_min":0,"x_max":0,"o":"m 967 276 b 786 210 926 240 871 210 b 482 236 682 210 606 236 b 332 201 433 236 382 222 l 332 203 b 447 393 399 256 447 318 l 739 393 l 739 525 l 426 525 b 393 664 411 569 393 606 b 564 793 393 749 454 793 b 725 640 681 793 725 749 l 1031 640 b 560 992 1031 885 838 992 b 90 669 328 992 90 910 b 125 525 90 610 107 565 l 42 525 l 42 393 l 178 393 b 183 343 181 378 183 361 b 42 151 183 263 133 207 l 143 -26 b 364 42 174 -7 243 42 b 804 -21 525 42 635 -21 b 1057 63 946 -21 1029 38 z "},"¤":{"ha":869,"x_min":0,"x_max":0,"o":"m 800 486 b 738 690 800 561 776 632 l 828 781 l 736 874 l 644 785 b 435 850 585 826 513 850 b 225 785 357 850 285 826 l 135 874 l 42 781 l 133 690 b 71 486 93 632 71 561 b 133 281 71 410 93 339 l 42 192 l 135 97 l 225 188 b 435 121 285 146 357 121 b 644 188 513 121 585 146 l 736 97 l 828 192 l 738 281 b 800 486 776 339 800 410 z m 435 318 b 268 486 335 318 268 396 b 435 653 268 576 335 653 b 603 486 535 653 603 576 b 435 318 603 396 535 318 z "},"*":{"ha":633,"x_min":0,"x_max":0,"o":"m 606 694 l 549 871 l 393 803 l 408 972 l 225 972 l 240 803 l 85 871 l 28 694 l 194 658 l 82 531 l 231 422 l 317 569 l 403 422 l 553 531 l 440 658 z "},"°":{"ha":522,"x_min":0,"x_max":0,"o":"m 261 972 b 28 738 115 972 28 864 b 261 504 28 613 115 504 b 494 738 407 504 494 613 b 261 972 494 864 407 972 z m 261 636 b 158 738 199 636 158 676 b 261 840 158 799 199 840 b 364 738 324 840 364 799 b 261 636 364 676 324 636 z "},"‹":{"ha":386,"x_min":0,"x_max":0,"o":"m 42 276 l 331 57 l 331 296 l 190 390 l 331 486 l 331 725 l 42 506 z "},"›":{"ha":388,"x_min":0,"x_max":0,"o":"m 56 725 l 56 486 l 197 390 l 56 296 l 56 57 l 346 276 l 346 506 z "},"#":{"ha":1072,"x_min":0,"x_max":0,"o":"m 1031 556 l 1031 726 l 892 726 l 946 944 l 744 944 l 689 726 l 524 726 l 578 944 l 375 944 l 321 726 l 113 726 l 113 556 l 278 556 l 236 389 l 42 389 l 42 218 l 194 218 l 139 0 l 342 0 l 396 218 l 563 218 l 508 0 l 711 0 l 765 218 l 960 218 l 960 389 l 808 389 l 849 556 z m 606 389 l 439 389 l 481 556 l 647 556 z "},"®":{"ha":1147,"x_min":0,"x_max":0,"o":"m 863 572 b 658 731 863 669 790 731 l 314 731 l 314 254 l 475 254 l 475 408 l 608 408 l 704 254 l 878 254 l 765 429 b 863 572 825 454 863 500 z m 475 621 l 632 621 b 699 572 675 621 699 610 b 632 518 699 536 681 518 l 475 518 z m 574 992 b 42 486 281 992 42 775 b 574 -21 42 197 281 -21 b 1106 486 867 -21 1106 197 b 574 992 1106 775 867 992 z m 574 72 b 147 486 339 72 147 250 b 574 900 147 721 339 900 b 1000 486 810 900 1000 721 b 574 72 1000 250 810 72 z "},"©":{"ha":1147,"x_min":0,"x_max":0,"o":"m 575 628 b 706 529 654 628 690 592 l 875 529 b 575 739 851 682 719 739 b 272 486 418 739 272 671 b 575 232 272 300 418 232 b 875 442 719 232 851 289 l 706 442 b 575 343 690 379 654 343 b 439 486 482 343 439 400 b 575 628 439 571 482 628 z m 574 992 b 42 486 281 992 42 775 b 574 -21 42 197 281 -21 b 1106 486 867 -21 1106 197 b 574 992 1106 775 867 992 z m 574 72 b 147 486 338 72 147 250 b 574 900 147 721 338 900 b 1000 486 810 900 1000 721 b 574 72 1000 250 810 72 z "},"%":{"ha":1563,"x_min":0,"x_max":0,"o":"m 1000 972 l 381 0 l 564 0 l 1182 972 z m 681 713 b 361 992 681 897 561 992 b 42 713 161 992 42 897 b 361 435 42 529 161 435 b 681 713 561 435 681 529 z m 361 575 b 256 713 283 575 256 633 b 361 851 256 793 283 851 b 467 713 439 851 467 793 b 361 575 467 633 439 575 z m 1201 538 b 882 258 1001 538 882 442 b 1201 -21 882 75 1001 -21 b 1521 258 1401 -21 1521 75 b 1201 538 1521 442 1401 538 z m 1201 121 b 1096 258 1124 121 1096 178 b 1201 396 1096 339 1124 396 b 1307 258 1279 396 1307 339 b 1201 121 1307 178 1279 121 z "},"‰":{"ha":2261,"x_min":0,"x_max":0,"o":"m 999 972 l 381 0 l 563 0 l 1182 972 z m 681 713 b 361 992 681 897 561 992 b 42 713 161 992 42 897 b 361 435 42 529 161 435 b 681 713 561 435 681 529 z m 361 575 b 256 713 283 575 256 633 b 361 851 256 793 283 851 b 467 713 439 851 467 793 b 361 575 467 633 439 575 z m 1201 538 b 882 258 1001 538 882 442 b 1201 -21 882 75 1001 -21 b 1521 258 1401 -21 1521 75 b 1201 538 1521 442 1401 538 z m 1201 121 b 1096 258 1124 121 1096 178 b 1201 396 1096 339 1124 396 b 1307 258 1279 396 1307 339 b 1201 121 1307 178 1279 121 z m 1899 538 b 1579 258 1700 538 1579 442 b 1899 -21 1579 75 1700 -21 b 2219 258 2099 -21 2219 75 b 1899 538 2219 442 2099 538 z m 1899 121 b 1793 258 1822 121 1793 178 b 1899 396 1793 339 1822 396 b 2004 258 1976 396 2004 339 b 1899 121 2004 178 1976 121 z "},"№":{"ha":1961,"x_min":0,"x_max":0,"o":"m 1265 201 l 1906 201 l 1906 399 l 1265 399 z m 1586 488 b 1906 739 1776 488 1906 561 b 1586 992 1906 918 1776 992 b 1265 739 1394 992 1265 918 b 1586 488 1265 561 1394 488 z m 1586 851 b 1692 739 1663 851 1692 808 b 1586 628 1692 671 1663 628 b 1481 739 1508 628 1481 671 b 1586 851 1481 808 1508 851 z m 860 386 l 444 972 l 69 972 l 69 0 l 399 0 l 399 585 l 814 0 l 1189 0 l 1189 972 l 860 972 z "},"§":{"ha":1154,"x_min":0,"x_max":0,"o":"m 1126 335 b 663 618 1126 533 943 561 b 428 715 500 653 428 664 b 578 783 428 758 461 783 b 729 689 685 783 729 756 l 1051 689 b 582 992 1051 864 926 992 b 100 707 299 992 100 904 b 147 582 100 657 117 617 b 28 386 78 531 28 468 b 490 103 28 188 211 161 b 725 7 654 69 725 57 b 576 -62 725 -37 692 -62 b 425 32 468 -62 425 -33 l 103 32 b 572 -271 103 -143 226 -271 b 1054 14 856 -271 1054 -183 b 1007 139 1054 64 1036 106 b 1126 335 1076 190 1126 253 z m 676 288 b 303 436 376 354 303 365 b 318 478 303 453 308 467 b 476 433 367 460 419 446 b 851 285 776 367 851 356 b 836 243 851 268 846 256 b 676 288 788 261 733 275 z "},"&":{"ha":1317,"x_min":0,"x_max":0,"o":"m 1317 0 b 1069 204 1246 58 1160 129 b 1167 485 1135 290 1167 389 l 913 485 b 889 353 913 439 904 394 b 768 449 849 385 808 418 b 686 511 742 471 714 492 b 1013 749 857 540 1013 601 b 586 992 1013 926 793 992 b 172 736 379 992 172 926 b 278 542 172 660 207 607 b 28 288 144 499 28 428 b 557 -21 28 94 208 -21 b 889 54 689 -21 800 8 b 960 0 911 36 935 18 z m 586 810 b 706 726 663 810 706 779 b 543 618 706 660 628 632 b 476 722 503 653 476 686 b 586 810 476 778 524 810 z m 572 164 b 321 314 425 164 321 215 b 401 436 321 365 346 407 b 463 388 421 421 442 404 b 717 186 536 328 614 267 b 572 164 676 172 628 164 z "},"\"":{"ha":686,"x_min":0,"x_max":0,"o":"m 82 515 l 267 515 l 306 972 l 42 972 z m 382 972 l 421 515 l 606 515 l 644 972 z "},"“":{"ha":682,"x_min":0,"x_max":0,"o":"m 469 972 l 325 635 l 563 635 l 654 972 z m 174 972 l 28 635 l 265 635 l 357 972 z "},"”":{"ha":682,"x_min":0,"x_max":0,"o":"m 121 972 l 28 635 l 213 635 l 358 972 z m 418 972 l 325 635 l 510 635 l 654 972 z "},"@":{"ha":1536,"x_min":0,"x_max":0,"o":"m 785 1018 b 28 356 340 1018 28 772 b 796 -310 28 -54 333 -310 b 1188 -232 986 -310 1143 -254 l 1188 -71 b 796 -161 1115 -110 971 -161 b 221 356 435 -161 221 44 b 785 869 221 678 440 869 b 1328 426 1083 869 1328 740 b 1208 163 1328 317 1304 163 b 1138 278 1151 163 1138 199 l 1138 663 l 925 663 l 925 594 b 714 679 874 647 801 679 b 381 347 524 679 381 561 b 714 17 381 135 531 17 b 965 154 828 17 915 71 b 1194 28 996 72 1076 28 b 1508 439 1349 28 1508 135 b 785 1018 1508 797 1193 1018 z m 769 188 b 610 347 663 188 610 251 b 769 507 610 444 661 507 b 935 347 878 507 935 440 b 769 188 935 254 878 188 z "},"⁄":{"ha":722,"x_min":0,"x_max":0,"o":"m 468 1025 l 14 -53 l 254 -53 l 708 1025 z "},"'":{"ha":346,"x_min":0,"x_max":0,"o":"m 42 972 l 81 515 l 265 515 l 304 972 z "},"‘":{"ha":385,"x_min":0,"x_max":0,"o":"m 172 972 l 28 635 l 265 635 l 357 972 z "},"’":{"ha":385,"x_min":0,"x_max":0,"o":"m 121 972 l 28 635 l 213 635 l 357 972 z "},"„":{"ha":682,"x_min":0,"x_max":0,"o":"m 121 204 l 28 -133 l 213 -133 l 358 204 z m 418 204 l 325 -133 l 510 -133 l 654 204 z "},"‚":{"ha":385,"x_min":0,"x_max":0,"o":"m 121 204 l 28 -133 l 213 -133 l 357 204 z "},"æ":{"ha":1601,"x_min":0,"x_max":0,"o":"m 1117 760 b 813 683 1010 760 900 738 b 479 760 738 746 617 760 b 64 515 238 760 90 696 l 340 515 b 479 589 350 561 372 589 b 621 474 608 589 621 544 l 621 464 b 28 207 117 492 28 358 b 388 -21 28 42 174 -21 b 751 104 524 -21 660 13 b 1124 -21 843 15 985 -21 b 1561 251 1325 -21 1514 47 l 1290 251 b 1124 164 1265 213 1219 164 b 931 301 1003 164 949 225 l 1572 301 b 1117 760 1592 646 1326 760 z m 621 207 b 432 132 582 161 513 132 b 322 207 364 132 322 153 b 621 296 322 296 436 304 z m 936 456 b 1117 576 958 524 1011 576 b 1289 456 1210 576 1267 532 z "},"œ":{"ha":1674,"x_min":0,"x_max":0,"o":"m 1190 760 b 851 660 1068 760 942 731 b 513 760 760 731 635 760 b 28 369 283 760 28 657 b 513 -21 28 83 283 -21 b 851 81 635 -21 760 10 b 1196 -21 942 10 1069 -21 b 1633 251 1397 -21 1586 47 l 1363 251 b 1196 164 1339 213 1292 164 b 1003 301 1075 164 1021 225 l 1644 301 b 1190 760 1665 646 1400 760 z m 513 178 b 318 369 371 178 318 269 b 513 563 318 471 371 563 b 706 369 653 563 706 471 b 513 178 706 269 653 178 z m 1008 456 b 1190 576 1031 524 1083 576 b 1361 456 1282 576 1339 532 z "},"đ":{"ha":1093,"x_min":0,"x_max":0,"o":"m 1093 889 l 988 889 l 988 972 l 685 972 l 685 889 l 506 889 l 506 757 l 685 757 l 685 642 b 433 740 622 708 533 740 b 28 369 204 740 28 621 b 433 -21 28 118 204 -21 b 685 89 533 -21 622 17 l 685 0 l 988 0 l 988 757 l 1093 757 z m 511 178 b 318 369 378 178 318 269 b 511 563 318 471 378 563 b 711 369 654 563 711 478 b 511 178 711 261 654 178 z "},"ð":{"ha":1038,"x_min":0,"x_max":0,"o":"m 674 917 l 772 985 l 701 1089 l 528 971 b 171 1018 404 1006 278 1018 l 140 843 b 322 831 199 843 261 839 l 239 774 l 311 668 l 489 790 b 726 565 604 749 697 678 b 443 656 707 589 611 656 b 28 335 235 656 28 582 b 511 -21 28 68 261 -21 b 1010 407 801 -21 1010 97 b 674 917 1010 672 861 828 z m 501 189 b 322 328 399 189 322 224 b 501 460 322 432 410 460 b 699 328 594 460 699 443 b 501 189 699 213 606 189 z "},"ø":{"ha":1024,"x_min":0,"x_max":0,"o":"m 888 633 l 965 706 l 882 796 l 783 704 b 513 760 700 743 604 760 b 28 369 283 760 28 657 b 136 106 28 254 71 168 l 58 35 l 142 -56 l 240 36 b 513 -21 324 -4 419 -21 b 996 369 740 -21 996 83 b 888 633 996 486 953 572 z m 318 369 b 513 563 318 471 371 563 b 608 543 550 563 582 556 l 332 288 b 318 369 322 313 318 342 z m 513 178 b 415 197 474 178 442 185 l 692 453 b 706 369 701 426 706 399 b 513 178 706 269 653 178 z "},"þ":{"ha":1043,"x_min":0,"x_max":0,"o":"m 610 760 b 358 651 510 760 421 722 l 358 972 l 56 972 l 56 -232 l 358 -232 l 358 89 b 610 -21 421 17 510 -21 b 1015 369 839 -21 1015 118 b 610 760 1015 621 839 760 z m 531 178 b 332 369 389 178 332 261 b 531 563 332 478 389 563 b 725 369 665 563 725 471 b 531 178 725 269 665 178 z "},"ħ":{"ha":1046,"x_min":0,"x_max":0,"o":"m 667 740 b 408 643 525 740 438 675 l 408 757 l 586 757 l 586 889 l 408 889 l 408 972 l 106 972 l 106 889 l 0 889 l 0 757 l 106 757 l 106 0 l 408 0 l 408 407 b 550 553 408 490 446 553 b 688 407 654 553 688 490 l 688 0 l 990 0 l 990 476 b 667 740 990 665 872 740 z "},"ŧ":{"ha":726,"x_min":0,"x_max":0,"o":"m 686 569 l 686 740 l 469 740 l 469 932 l 165 932 l 165 740 l 28 740 l 28 569 l 165 569 l 165 503 l 28 503 l 28 371 l 165 371 l 165 296 b 511 -12 165 75 232 -12 b 686 -1 568 -12 633 -8 l 686 204 b 469 296 538 192 469 192 l 469 371 l 654 371 l 654 503 l 469 503 l 469 569 z "},"ŋ":{"ha":996,"x_min":0,"x_max":0,"o":"m 618 760 b 358 646 476 760 389 685 l 358 740 l 56 740 l 56 0 l 358 0 l 358 407 b 501 553 358 490 397 553 b 638 407 604 553 638 490 l 638 39 b 506 -36 638 -21 625 -43 l 506 -253 b 663 -258 549 -257 606 -258 b 940 39 901 -258 940 -117 l 940 476 b 618 760 940 665 822 760 z "},"ł":{"ha":568,"x_min":0,"x_max":0,"o":"m 554 776 l 436 719 l 436 1025 l 133 1025 l 133 572 l 14 514 l 14 326 l 133 385 l 133 0 l 436 0 l 436 532 l 554 589 z "},"Æ":{"ha":1858,"x_min":0,"x_max":0,"o":"m 1803 224 l 1158 224 l 1158 388 l 1750 388 l 1750 611 l 1158 611 l 1158 747 l 1789 747 l 1789 972 l 621 972 l 0 0 l 343 0 l 433 150 l 829 150 l 829 0 l 1803 0 z m 568 375 l 790 747 l 829 747 l 829 375 z "},"Œ":{"ha":1833,"x_min":0,"x_max":0,"o":"m 1778 224 l 1135 224 l 1135 388 l 1725 388 l 1725 611 l 1135 611 l 1135 747 l 1765 747 l 1765 972 l 694 972 b 42 486 390 972 42 894 b 694 0 42 76 390 0 l 1778 0 z m 768 224 b 375 486 572 224 375 235 b 768 747 375 736 572 747 l 806 747 l 806 224 z "},"Đ":{"ha":1321,"x_min":0,"x_max":0,"o":"m 665 972 l 146 972 l 146 571 l 28 571 l 28 400 l 146 400 l 146 0 l 665 0 b 1279 486 969 0 1279 76 b 665 972 1279 894 969 972 z m 592 224 l 475 224 l 475 400 l 760 400 l 760 571 l 475 571 l 475 747 l 592 747 b 944 486 788 747 944 736 b 592 224 944 235 788 224 z "},"Ð":{"ha":1321,"x_min":0,"x_max":0,"o":"m 665 972 l 146 972 l 146 571 l 28 571 l 28 400 l 146 400 l 146 0 l 665 0 b 1279 486 969 0 1279 76 b 665 972 1279 894 969 972 z m 592 224 l 475 224 l 475 400 l 760 400 l 760 571 l 475 571 l 475 747 l 592 747 b 944 486 788 747 944 736 b 592 224 944 235 788 224 z "},"Ø":{"ha":1349,"x_min":0,"x_max":0,"o":"m 1167 832 l 1243 903 l 1133 1022 l 1026 924 b 674 992 921 971 797 992 b 42 486 358 992 42 857 b 181 140 42 332 96 219 l 104 68 l 215 -51 l 322 47 b 674 -21 426 0 550 -21 b 1307 486 989 -21 1307 114 b 1167 832 1307 639 1253 751 z m 375 486 b 674 769 375 663 483 769 b 828 740 733 769 785 760 l 404 346 b 375 486 385 386 375 432 z m 674 201 b 519 232 614 201 563 213 l 944 625 b 972 486 963 586 972 539 b 674 201 972 308 865 201 z "},"Þ":{"ha":1203,"x_min":0,"x_max":0,"o":"m 760 847 l 399 847 l 399 972 l 69 972 l 69 0 l 399 0 l 399 178 l 721 178 b 1161 518 989 178 1161 274 b 760 847 1161 717 1028 847 z m 682 400 l 399 400 l 399 622 l 682 622 b 828 518 779 622 828 594 b 682 400 828 443 785 400 z "},"Ħ":{"ha":1410,"x_min":0,"x_max":0,"o":"m 1396 863 l 1278 863 l 1278 972 l 949 972 l 949 863 l 461 863 l 461 972 l 132 972 l 132 863 l 14 863 l 14 690 l 132 690 l 132 0 l 461 0 l 461 381 l 949 381 l 949 0 l 1278 0 l 1278 690 l 1396 690 z m 949 618 l 461 618 l 461 690 l 949 690 z "},"Ŧ":{"ha":1149,"x_min":0,"x_max":0,"o":"m 1107 747 l 1107 972 l 42 972 l 42 747 l 410 747 l 410 571 l 201 571 l 201 400 l 410 400 l 410 0 l 739 0 l 739 400 l 947 400 l 947 571 l 739 571 l 739 747 z "},"Ŋ":{"ha":1258,"x_min":0,"x_max":0,"o":"m 860 972 l 860 408 l 419 972 l 69 972 l 69 0 l 399 0 l 399 588 l 860 0 b 728 -75 860 -61 847 -83 l 728 -292 b 897 -299 771 -296 840 -299 b 1189 0 1136 -299 1189 -172 l 1189 972 z "},"Ł":{"ha":1147,"x_min":0,"x_max":0,"o":"m 1106 224 l 475 224 l 475 418 l 746 550 l 746 738 l 475 606 l 475 972 l 146 972 l 146 446 l 28 389 l 28 201 l 146 258 l 146 0 l 1106 0 z "},"ŉ":{"ha":1258,"x_min":0,"x_max":0,"o":"m 107 972 l 14 635 l 199 635 l 343 972 z m 881 760 b 621 646 739 760 650 685 l 621 740 l 318 740 l 318 0 l 621 0 l 621 407 b 763 553 621 490 660 553 b 900 407 867 553 900 490 l 900 0 l 1203 0 l 1203 476 b 881 760 1203 665 1085 760 z "},"ß":{"ha":1131,"x_min":0,"x_max":0,"o":"m 874 535 b 1015 722 954 569 1015 628 b 546 992 1015 950 769 992 b 56 640 300 992 56 919 l 56 0 l 358 0 l 358 628 b 542 806 358 769 414 806 b 732 699 675 806 732 768 b 607 607 732 640 694 607 l 446 607 l 446 408 l 633 408 b 799 304 733 408 799 386 b 613 176 799 196 713 176 b 446 196 538 176 467 192 l 446 0 b 651 -21 490 -11 588 -21 b 1103 296 901 -21 1103 47 b 874 535 1103 438 996 504 z "},"˛":{"ha":497,"x_min":0,"x_max":0,"o":"m 428 0 l 193 0 b 69 -153 143 -24 69 -72 b 281 -274 69 -251 169 -274 b 428 -251 350 -274 417 -257 l 428 -126 b 288 -106 386 -140 288 -162 b 428 0 288 -47 379 -19 z "},"":{"ha":483,"x_min":0,"x_max":0,"o":"m 125 -92 l 69 -324 l 267 -324 l 414 -92 z "},"¸":{"ha":556,"x_min":0,"x_max":0,"o":"m 260 -62 l 326 25 l 168 25 l 90 -81 l 90 -156 b 281 -174 154 -147 281 -125 b 194 -211 281 -201 254 -211 b 69 -187 151 -211 97 -199 l 69 -300 b 250 -322 119 -312 185 -322 b 486 -172 379 -322 486 -287 b 260 -62 486 -46 347 -42 z "},"ą":{"ha":979,"x_min":0,"x_max":0,"o":"m 924 0 l 924 474 b 479 760 924 722 718 760 b 64 515 239 760 90 696 l 340 515 b 479 589 350 561 372 589 b 621 474 610 589 621 544 l 621 464 b 28 200 117 492 28 368 b 356 -21 28 54 147 -21 b 621 79 482 -21 576 31 l 621 0 l 689 0 b 565 -153 639 -24 565 -72 b 776 -274 565 -251 665 -274 b 924 -251 846 -274 913 -257 l 924 -126 b 783 -106 882 -140 783 -162 b 924 0 783 -47 875 -19 z m 621 211 b 432 132 581 165 510 132 b 322 207 365 132 322 153 b 621 296 322 296 438 304 z "},"ç":{"ha":1006,"x_min":0,"x_max":0,"o":"m 542 -62 l 575 -18 b 978 303 764 -1 944 90 l 697 303 b 511 176 678 232 619 176 b 318 369 371 176 318 269 b 511 563 318 469 371 563 b 697 438 619 563 678 508 l 978 438 b 511 760 940 672 721 760 b 28 369 283 760 28 656 b 419 -15 28 121 219 10 l 372 -81 l 372 -156 b 563 -174 436 -147 563 -125 b 476 -211 563 -201 536 -211 b 351 -187 433 -211 379 -199 l 351 -300 b 532 -322 401 -312 467 -322 b 768 -172 661 -322 768 -287 b 542 -62 768 -46 629 -42 z "},"ę":{"ha":982,"x_min":0,"x_max":0,"o":"m 499 760 b 28 369 269 760 28 656 b 413 -15 28 121 208 10 b 317 -153 367 -42 317 -86 b 529 -274 317 -251 417 -274 b 675 -251 597 -274 664 -257 l 675 -126 b 535 -106 633 -140 535 -162 b 654 -6 535 -54 604 -25 b 942 250 793 22 906 99 l 672 250 b 506 164 647 213 601 164 b 313 301 383 164 331 225 l 953 301 b 499 760 974 646 708 760 z m 318 456 b 499 575 339 524 393 575 b 669 456 592 575 647 532 z "},"į":{"ha":414,"x_min":0,"x_max":0,"o":"m 207 796 b 364 939 300 796 364 847 b 207 1083 364 1031 300 1083 b 50 939 115 1083 50 1031 b 207 796 50 847 115 796 z m 56 0 l 124 0 b 0 -153 74 -24 0 -72 b 213 -274 0 -251 100 -274 b 358 -251 281 -274 347 -257 l 358 -126 b 218 -106 317 -140 218 -162 b 358 0 218 -47 310 -19 l 358 740 l 56 740 z "},"ş":{"ha":978,"x_min":0,"x_max":0,"o":"m 508 -62 l 540 -19 b 950 233 796 -11 950 56 b 535 472 950 426 760 446 b 331 538 408 488 331 490 b 468 592 331 575 368 592 b 610 515 564 592 610 564 l 911 515 b 471 760 911 657 789 760 b 44 514 192 760 44 676 b 367 292 44 358 160 322 b 636 207 547 265 636 264 b 497 149 636 164 588 149 b 331 240 394 149 331 168 l 14 240 b 385 -17 14 83 138 0 l 339 -81 l 339 -156 b 529 -174 403 -147 529 -125 b 443 -211 529 -201 503 -211 b 318 -187 400 -211 346 -199 l 318 -300 b 499 -322 368 -312 433 -322 b 735 -172 628 -322 735 -287 b 508 -62 735 -46 596 -42 z "},"ų":{"ha":997,"x_min":0,"x_max":0,"o":"m 638 740 l 638 332 b 496 188 638 250 600 188 b 358 332 392 188 358 250 l 358 740 l 56 740 l 56 263 b 379 -21 56 74 174 -21 b 638 93 521 -21 608 56 l 638 0 l 706 0 b 582 -153 656 -24 582 -72 b 793 -274 582 -251 682 -274 b 940 -251 863 -274 929 -257 l 940 -126 b 800 -106 899 -140 800 -162 b 940 0 800 -47 892 -19 l 942 0 l 942 740 z "},"Ą":{"ha":1279,"x_min":0,"x_max":0,"o":"m 1139 -106 b 1279 0 1139 -47 1229 -19 l 829 972 l 449 972 l 0 0 l 343 0 l 404 150 l 874 150 l 936 0 l 1044 0 b 921 -153 993 -24 921 -72 b 1132 -274 921 -251 1021 -274 b 1279 -251 1200 -274 1268 -257 l 1279 -126 b 1139 -106 1236 -140 1139 -162 z m 496 375 l 639 726 l 783 375 z "},"Ç":{"ha":1289,"x_min":0,"x_max":0,"o":"m 696 -62 l 729 -17 b 1247 397 985 3 1206 122 l 910 397 b 649 201 879 274 806 201 b 375 486 461 201 375 314 b 649 769 375 657 461 769 b 910 574 806 769 879 697 l 1247 574 b 649 992 1201 878 938 992 b 42 486 332 992 42 857 b 572 -18 42 143 286 3 l 526 -81 l 526 -156 b 717 -174 590 -147 717 -125 b 631 -211 717 -201 690 -211 b 506 -187 588 -211 533 -199 l 506 -300 b 686 -322 556 -312 621 -322 b 922 -172 815 -322 922 -287 b 696 -62 922 -46 783 -42 z "},"Ę":{"ha":1097,"x_min":0,"x_max":0,"o":"m 901 -106 b 1042 0 901 -47 993 -19 l 1042 224 l 399 224 l 399 386 l 989 386 l 989 611 l 399 611 l 399 747 l 1028 747 l 1028 972 l 69 972 l 69 0 l 807 0 b 683 -153 757 -24 683 -72 b 894 -274 683 -251 783 -274 b 1042 -251 964 -274 1031 -257 l 1042 -126 b 901 -106 1000 -140 901 -162 z "},"Ş":{"ha":1210,"x_min":0,"x_max":0,"o":"m 649 -62 l 681 -19 b 1182 308 1011 -6 1182 92 b 665 607 1182 554 969 575 b 378 696 499 624 378 629 b 581 771 378 751 447 771 b 785 675 707 771 785 742 l 1119 675 b 585 992 1119 843 997 992 b 50 681 207 992 50 878 b 454 378 50 486 156 424 b 828 274 733 335 828 339 b 619 200 828 219 750 200 b 372 315 483 200 372 225 l 28 315 b 524 -19 28 124 169 -3 l 479 -81 l 479 -156 b 669 -174 543 -147 669 -125 b 583 -211 669 -201 643 -211 b 458 -187 540 -211 486 -199 l 458 -300 b 639 -322 508 -312 574 -322 b 875 -172 768 -322 875 -287 b 649 -62 875 -46 736 -42 z "},"Ų":{"ha":1219,"x_min":0,"x_max":0,"o":"m 821 972 l 821 433 b 610 201 821 235 740 201 b 399 433 478 201 399 235 l 399 972 l 69 972 l 69 407 b 585 -21 69 43 318 -17 b 497 -153 542 -47 497 -90 b 708 -274 497 -251 597 -274 b 856 -251 776 -274 844 -257 l 856 -126 b 715 -106 813 -140 715 -162 b 856 3 715 -47 806 -17 b 1150 407 1024 43 1150 147 l 1150 972 z "},"´":{"ha":560,"x_min":0,"x_max":0,"o":"m 188 979 l 69 774 l 293 774 l 490 979 z "},"˜":{"ha":761,"x_min":0,"x_max":0,"o":"m 521 974 b 488 918 521 947 522 918 b 222 993 424 918 353 993 b 69 779 117 993 69 900 l 239 779 b 272 833 239 807 243 833 b 538 758 328 833 406 758 b 692 974 668 758 692 882 z "},"`":{"ha":561,"x_min":0,"x_max":0,"o":"m 372 979 l 69 979 l 268 774 l 492 774 z "},"ˇ":{"ha":858,"x_min":0,"x_max":0,"o":"m 525 979 l 429 872 l 333 979 l 69 979 l 275 774 l 583 774 l 789 979 z "},"˙":{"ha":376,"x_min":0,"x_max":0,"o":"m 188 1004 b 69 885 122 1004 69 950 b 188 767 69 819 122 767 b 307 885 253 767 307 819 b 188 1004 307 950 253 1004 z "},"¯":{"ha":782,"x_min":0,"x_max":0,"o":"m 69 943 l 69 797 l 713 797 l 713 943 z "},"ˆ":{"ha":858,"x_min":0,"x_max":0,"o":"m 789 774 l 583 979 l 275 979 l 69 774 l 333 774 l 429 881 l 525 774 z "},"˘":{"ha":679,"x_min":0,"x_max":0,"o":"m 447 979 b 339 899 442 925 407 899 b 232 979 272 899 238 925 l 69 979 b 339 767 69 850 151 767 b 610 979 528 767 610 850 z "},"¨":{"ha":731,"x_min":0,"x_max":0,"o":"m 188 1004 b 69 885 122 1004 69 950 b 188 767 69 819 122 767 b 307 885 253 767 307 819 b 188 1004 307 950 253 1004 z m 542 1004 b 424 885 476 1004 424 950 b 542 767 424 819 476 767 b 661 885 607 767 661 819 b 542 1004 661 950 607 1004 z "},"˚":{"ha":515,"x_min":0,"x_max":0,"o":"m 258 1129 b 69 940 150 1129 69 1049 b 258 753 69 833 150 753 b 446 940 367 753 446 833 b 258 1129 446 1049 367 1129 z m 258 871 b 189 940 215 871 189 900 b 258 1010 189 981 215 1010 b 328 940 300 1010 328 981 b 258 871 328 900 300 871 z "},"˝":{"ha":921,"x_min":0,"x_max":0,"o":"m 549 979 l 431 774 l 654 774 l 851 979 z m 189 979 l 69 774 l 294 774 l 492 979 z "}," ":{"ha":361,"x_min":0,"x_max":0,"o":""},"Á":{"ha":1279,"x_min":0,"x_max":0,"o":"m 936 0 l 1279 0 l 829 972 l 449 972 l 0 0 l 343 0 l 404 150 l 874 150 z m 496 375 l 639 726 l 783 375 z m 644 1257 l 526 1051 l 750 1051 l 947 1257 z "},"Ă":{"ha":1279,"x_min":0,"x_max":0,"o":"m 936 0 l 1279 0 l 829 972 l 449 972 l 0 0 l 343 0 l 404 150 l 874 150 z m 496 375 l 639 726 l 783 375 z m 747 1257 b 639 1176 742 1203 707 1176 b 532 1257 572 1176 538 1203 l 369 1257 b 639 1044 369 1128 451 1044 b 910 1257 828 1044 910 1128 z "},"Â":{"ha":1279,"x_min":0,"x_max":0,"o":"m 936 0 l 1279 0 l 829 972 l 449 972 l 0 0 l 343 0 l 404 150 l 874 150 z m 496 375 l 639 726 l 783 375 z m 999 1051 l 793 1257 l 485 1257 l 279 1051 l 543 1051 l 639 1158 l 735 1051 z "},"À":{"ha":1279,"x_min":0,"x_max":0,"o":"m 936 0 l 1279 0 l 829 972 l 449 972 l 0 0 l 343 0 l 404 150 l 874 150 z m 496 375 l 639 726 l 783 375 z m 647 1257 l 344 1257 l 543 1051 l 767 1051 z "},"Ä":{"ha":1279,"x_min":0,"x_max":0,"o":"m 936 0 l 1279 0 l 829 972 l 449 972 l 0 0 l 343 0 l 404 150 l 874 150 z m 496 375 l 639 726 l 783 375 z m 461 1282 b 343 1163 396 1282 343 1228 b 461 1044 343 1097 396 1044 b 581 1163 526 1044 581 1097 b 461 1282 581 1228 526 1282 z m 815 1282 b 697 1163 750 1282 697 1228 b 815 1044 697 1097 750 1044 b 935 1163 881 1044 935 1097 b 815 1282 935 1228 881 1282 z "},"Ā":{"ha":1279,"x_min":0,"x_max":0,"o":"m 936 0 l 1279 0 l 829 972 l 449 972 l 0 0 l 343 0 l 404 150 l 874 150 z m 496 375 l 639 726 l 783 375 z m 318 1221 l 318 1075 l 961 1075 l 961 1221 z "},"Å":{"ha":1279,"x_min":0,"x_max":0,"o":"m 936 0 l 1279 0 l 829 972 l 449 972 l 0 0 l 343 0 l 404 150 l 874 150 z m 496 375 l 639 726 l 783 375 z m 640 1407 b 451 1218 532 1407 451 1326 b 640 1031 451 1111 532 1031 b 828 1218 749 1031 828 1111 b 640 1407 828 1326 749 1407 z m 640 1149 b 571 1218 597 1149 571 1178 b 640 1288 571 1258 597 1288 b 710 1218 682 1288 710 1258 b 640 1149 710 1178 682 1149 z "},"Ã":{"ha":1279,"x_min":0,"x_max":0,"o":"m 936 0 l 1279 0 l 829 972 l 449 972 l 0 0 l 343 0 l 404 150 l 874 150 z m 496 375 l 639 726 l 783 375 z m 779 1251 b 746 1196 779 1225 781 1196 b 481 1271 682 1196 611 1271 b 328 1057 375 1271 328 1178 l 497 1057 b 531 1111 497 1085 501 1111 b 796 1036 586 1111 664 1036 b 950 1251 926 1036 950 1160 z "},"Ǽ":{"ha":1858,"x_min":0,"x_max":0,"o":"m 1803 224 l 1158 224 l 1158 388 l 1750 388 l 1750 611 l 1158 611 l 1158 747 l 1789 747 l 1789 972 l 621 972 l 0 0 l 343 0 l 433 150 l 829 150 l 829 0 l 1803 0 z m 568 375 l 790 747 l 829 747 l 829 375 z m 1031 1257 l 913 1051 l 1136 1051 l 1333 1257 z "},"Ć":{"ha":1289,"x_min":0,"x_max":0,"o":"m 649 201 b 375 486 461 201 375 314 b 649 769 375 657 461 769 b 910 574 806 769 879 697 l 1247 574 b 649 992 1201 878 938 992 b 42 486 332 992 42 857 b 649 -21 42 114 332 -21 b 1247 397 938 -21 1201 93 l 910 397 b 649 201 879 274 806 201 z m 649 1257 l 531 1051 l 754 1051 l 951 1257 z "},"Č":{"ha":1289,"x_min":0,"x_max":0,"o":"m 649 201 b 375 486 461 201 375 314 b 649 769 375 657 461 769 b 910 574 806 769 879 697 l 1247 574 b 649 992 1201 878 938 992 b 42 486 332 992 42 857 b 649 -21 42 114 332 -21 b 1247 397 938 -21 1201 93 l 910 397 b 649 201 879 274 806 201 z m 740 1257 l 644 1150 l 549 1257 l 285 1257 l 490 1051 l 799 1051 l 1004 1257 z "},"Ĉ":{"ha":1289,"x_min":0,"x_max":0,"o":"m 649 201 b 375 486 461 201 375 314 b 649 769 375 657 461 769 b 910 574 806 769 879 697 l 1247 574 b 649 992 1201 878 938 992 b 42 486 332 992 42 857 b 649 -21 42 114 332 -21 b 1247 397 938 -21 1201 93 l 910 397 b 649 201 879 274 806 201 z m 1004 1051 l 799 1257 l 490 1257 l 285 1051 l 549 1051 l 644 1158 l 740 1051 z "},"Ċ":{"ha":1289,"x_min":0,"x_max":0,"o":"m 649 201 b 375 486 461 201 375 314 b 649 769 375 657 461 769 b 910 574 806 769 879 697 l 1247 574 b 649 992 1201 878 938 992 b 42 486 332 992 42 857 b 649 -21 42 114 332 -21 b 1247 397 938 -21 1201 93 l 910 397 b 649 201 879 274 806 201 z m 644 1282 b 526 1163 579 1282 526 1228 b 644 1044 526 1097 579 1044 b 764 1163 710 1044 764 1097 b 644 1282 764 1228 710 1282 z "},"Ď":{"ha":1243,"x_min":0,"x_max":0,"o":"m 589 972 l 69 972 l 69 0 l 589 0 b 1201 486 893 0 1201 76 b 589 972 1201 894 893 972 z m 515 224 l 399 224 l 399 747 l 515 747 b 868 486 711 747 868 736 b 515 224 868 235 711 224 z m 661 1257 l 565 1150 l 469 1257 l 206 1257 l 411 1051 l 719 1051 l 925 1257 z "},"É":{"ha":1097,"x_min":0,"x_max":0,"o":"m 1042 224 l 399 224 l 399 386 l 989 386 l 989 611 l 399 611 l 399 747 l 1028 747 l 1028 972 l 69 972 l 69 0 l 1042 0 z m 532 1257 l 414 1051 l 638 1051 l 835 1257 z "},"Ĕ":{"ha":1097,"x_min":0,"x_max":0,"o":"m 1042 224 l 399 224 l 399 386 l 989 386 l 989 611 l 399 611 l 399 747 l 1028 747 l 1028 972 l 69 972 l 69 0 l 1042 0 z m 664 1257 b 556 1176 658 1203 624 1176 b 449 1257 489 1176 454 1203 l 286 1257 b 556 1044 286 1128 368 1044 b 826 1257 744 1044 826 1128 z "},"Ě":{"ha":1097,"x_min":0,"x_max":0,"o":"m 1042 224 l 399 224 l 399 386 l 989 386 l 989 611 l 399 611 l 399 747 l 1028 747 l 1028 972 l 69 972 l 69 0 l 1042 0 z m 651 1257 l 556 1150 l 460 1257 l 196 1257 l 401 1051 l 710 1051 l 915 1257 z "},"Ê":{"ha":1097,"x_min":0,"x_max":0,"o":"m 1042 224 l 399 224 l 399 386 l 989 386 l 989 611 l 399 611 l 399 747 l 1028 747 l 1028 972 l 69 972 l 69 0 l 1042 0 z m 915 1051 l 710 1257 l 401 1257 l 196 1051 l 460 1051 l 556 1158 l 651 1051 z "},"Ë":{"ha":1097,"x_min":0,"x_max":0,"o":"m 1042 224 l 399 224 l 399 386 l 989 386 l 989 611 l 399 611 l 399 747 l 1028 747 l 1028 972 l 69 972 l 69 0 l 1042 0 z m 378 1282 b 260 1163 313 1282 260 1228 b 378 1044 260 1097 313 1044 b 497 1163 443 1044 497 1097 b 378 1282 497 1228 443 1282 z m 732 1282 b 614 1163 667 1282 614 1228 b 732 1044 614 1097 667 1044 b 851 1163 797 1044 851 1097 b 732 1282 851 1228 797 1282 z "},"Ė":{"ha":1097,"x_min":0,"x_max":0,"o":"m 1042 224 l 399 224 l 399 386 l 989 386 l 989 611 l 399 611 l 399 747 l 1028 747 l 1028 972 l 69 972 l 69 0 l 1042 0 z m 554 1282 b 436 1163 489 1282 436 1228 b 554 1044 436 1097 489 1044 b 674 1163 619 1044 674 1097 b 554 1282 674 1228 619 1282 z "},"È":{"ha":1097,"x_min":0,"x_max":0,"o":"m 1042 224 l 399 224 l 399 386 l 989 386 l 989 611 l 399 611 l 399 747 l 1028 747 l 1028 972 l 69 972 l 69 0 l 1042 0 z m 578 1257 l 275 1257 l 474 1051 l 697 1051 z "},"Ē":{"ha":1097,"x_min":0,"x_max":0,"o":"m 1042 224 l 399 224 l 399 386 l 989 386 l 989 611 l 399 611 l 399 747 l 1028 747 l 1028 972 l 69 972 l 69 0 l 1042 0 z m 235 1221 l 235 1075 l 878 1075 l 878 1221 z "},"Ğ":{"ha":1319,"x_min":0,"x_max":0,"o":"m 1274 578 l 646 578 l 646 340 l 938 340 b 688 201 910 268 839 201 b 375 486 499 201 375 300 b 660 769 375 671 471 769 b 914 647 800 769 871 725 l 1253 647 b 661 992 1190 892 943 992 b 42 486 349 992 42 857 b 686 -21 42 114 344 -21 b 1274 578 1063 -21 1311 151 z m 767 1257 b 658 1176 761 1203 726 1176 b 551 1257 592 1176 557 1203 l 389 1257 b 658 1044 389 1128 471 1044 b 929 1257 847 1044 929 1128 z "},"Ĝ":{"ha":1319,"x_min":0,"x_max":0,"o":"m 1274 578 l 646 578 l 646 340 l 938 340 b 688 201 910 268 839 201 b 375 486 499 201 375 300 b 660 769 375 671 471 769 b 914 647 800 769 871 725 l 1253 647 b 661 992 1190 892 943 992 b 42 486 349 992 42 857 b 686 -21 42 114 344 -21 b 1274 578 1063 -21 1311 151 z m 1019 1051 l 814 1257 l 506 1257 l 300 1051 l 564 1051 l 660 1158 l 756 1051 z "},"Ģ":{"ha":1319,"x_min":0,"x_max":0,"o":"m 1274 578 l 646 578 l 646 340 l 938 340 b 688 201 910 268 839 201 b 375 486 499 201 375 300 b 660 769 375 671 471 769 b 914 647 800 769 871 725 l 1253 647 b 661 992 1190 892 943 992 b 42 486 349 992 42 857 b 686 -21 42 114 344 -21 b 1274 578 1063 -21 1311 151 z m 543 -92 l 488 -324 l 685 -324 l 832 -92 z "},"Ġ":{"ha":1319,"x_min":0,"x_max":0,"o":"m 1274 578 l 646 578 l 646 340 l 938 340 b 688 201 910 268 839 201 b 375 486 499 201 375 300 b 660 769 375 671 471 769 b 914 647 800 769 871 725 l 1253 647 b 661 992 1190 892 943 992 b 42 486 349 992 42 857 b 686 -21 42 114 344 -21 b 1274 578 1063 -21 1311 151 z m 658 1282 b 540 1163 593 1282 540 1228 b 658 1044 540 1097 593 1044 b 778 1163 724 1044 778 1097 b 658 1282 778 1228 724 1282 z "},"Ĥ":{"ha":1285,"x_min":0,"x_max":0,"o":"m 886 972 l 886 617 l 400 617 l 400 972 l 69 972 l 69 0 l 400 0 l 400 381 l 886 381 l 886 0 l 1215 0 l 1215 972 z m 1001 1051 l 796 1257 l 488 1257 l 282 1051 l 546 1051 l 642 1158 l 738 1051 z "},"İ":{"ha":469,"x_min":0,"x_max":0,"o":"m 69 972 l 69 0 l 400 0 l 400 972 z m 233 1282 b 115 1163 168 1282 115 1228 b 233 1044 115 1097 168 1044 b 353 1163 299 1044 353 1097 b 233 1282 353 1228 299 1282 z "},"Ĳ":{"ha":1594,"x_min":0,"x_max":0,"o":"m 69 972 l 69 0 l 400 0 l 400 972 z m 1196 972 l 1196 436 b 1021 201 1196 279 1151 201 b 826 407 882 201 826 265 l 826 499 l 511 499 l 511 390 b 1021 -21 511 68 726 -21 b 1525 436 1297 -21 1525 43 l 1525 972 z "},"Ĵ":{"ha":1125,"x_min":0,"x_max":0,"o":"m 726 972 l 726 436 b 551 201 726 279 682 201 b 357 407 413 201 357 265 l 357 499 l 42 499 l 42 390 b 551 -21 42 68 257 -21 b 1056 436 828 -21 1056 43 l 1056 972 z m 1242 1051 l 1036 1257 l 728 1257 l 522 1051 l 786 1051 l 882 1158 l 978 1051 z "},"Ķ":{"ha":1229,"x_min":0,"x_max":0,"o":"m 831 0 l 1215 0 l 772 597 l 1196 972 l 789 972 l 399 617 l 399 972 l 69 972 l 69 0 l 399 0 l 399 268 l 549 401 z m 469 -92 l 414 -324 l 611 -324 l 758 -92 z "},"Ĺ":{"ha":1071,"x_min":0,"x_max":0,"o":"m 1029 224 l 399 224 l 399 972 l 69 972 l 69 0 l 1029 0 z m 249 1257 l 131 1051 l 354 1051 l 551 1257 z "},"Ľ":{"ha":1071,"x_min":0,"x_max":0,"o":"m 1029 224 l 399 224 l 399 972 l 69 972 l 69 0 l 1029 0 z m 694 972 l 601 635 l 786 635 l 931 972 z "},"Ļ":{"ha":1071,"x_min":0,"x_max":0,"o":"m 1029 224 l 399 224 l 399 972 l 69 972 l 69 0 l 1029 0 z m 432 -92 l 376 -324 l 574 -324 l 721 -92 z "},"Ŀ":{"ha":1071,"x_min":0,"x_max":0,"o":"m 733 681 b 583 531 650 681 583 613 b 733 379 583 447 650 379 b 885 531 817 379 885 447 b 733 681 885 613 817 681 z m 1029 224 l 399 224 l 399 972 l 69 972 l 69 0 l 1029 0 z "},"Ń":{"ha":1258,"x_min":0,"x_max":0,"o":"m 860 972 l 860 393 l 418 972 l 69 972 l 69 0 l 399 0 l 399 578 l 840 0 l 1189 0 l 1189 972 z m 633 1257 l 515 1051 l 739 1051 l 936 1257 z "},"Ň":{"ha":1258,"x_min":0,"x_max":0,"o":"m 860 972 l 860 393 l 418 972 l 69 972 l 69 0 l 399 0 l 399 578 l 840 0 l 1189 0 l 1189 972 z m 725 1257 l 629 1150 l 533 1257 l 269 1257 l 475 1051 l 783 1051 l 989 1257 z "},"Ņ":{"ha":1258,"x_min":0,"x_max":0,"o":"m 860 972 l 860 393 l 418 972 l 69 972 l 69 0 l 399 0 l 399 578 l 840 0 l 1189 0 l 1189 972 z m 513 -92 l 457 -324 l 654 -324 l 801 -92 z "},"Ñ":{"ha":1258,"x_min":0,"x_max":0,"o":"m 860 972 l 860 393 l 418 972 l 69 972 l 69 0 l 399 0 l 399 578 l 840 0 l 1189 0 l 1189 972 z m 769 1251 b 736 1196 769 1225 771 1196 b 471 1271 672 1196 601 1271 b 318 1057 365 1271 318 1178 l 488 1057 b 521 1111 488 1085 492 1111 b 786 1036 576 1111 654 1036 b 940 1251 917 1036 940 1160 z "},"Ó":{"ha":1349,"x_min":0,"x_max":0,"o":"m 674 992 b 42 486 358 992 42 857 b 674 -21 42 114 358 -21 b 1307 486 989 -21 1307 114 b 674 992 1307 857 989 992 z m 674 201 b 375 486 483 201 375 308 b 674 769 375 663 483 769 b 972 486 865 769 972 663 b 674 201 972 308 865 201 z m 665 1257 l 547 1051 l 771 1051 l 968 1257 z "},"Ŏ":{"ha":1349,"x_min":0,"x_max":0,"o":"m 674 992 b 42 486 358 992 42 857 b 674 -21 42 114 358 -21 b 1307 486 989 -21 1307 114 b 674 992 1307 857 989 992 z m 674 201 b 375 486 483 201 375 308 b 674 769 375 663 483 769 b 972 486 865 769 972 663 b 674 201 972 308 865 201 z m 782 1257 b 674 1176 776 1203 742 1176 b 567 1257 607 1176 572 1203 l 404 1257 b 674 1044 404 1128 486 1044 b 944 1257 863 1044 944 1128 z "},"Ô":{"ha":1349,"x_min":0,"x_max":0,"o":"m 674 992 b 42 486 358 992 42 857 b 674 -21 42 114 358 -21 b 1307 486 989 -21 1307 114 b 674 992 1307 857 989 992 z m 674 201 b 375 486 483 201 375 308 b 674 769 375 663 483 769 b 972 486 865 769 972 663 b 674 201 972 308 865 201 z m 1033 1051 l 828 1257 l 519 1257 l 314 1051 l 578 1051 l 674 1158 l 769 1051 z "},"Ö":{"ha":1349,"x_min":0,"x_max":0,"o":"m 674 992 b 42 486 358 992 42 857 b 674 -21 42 114 358 -21 b 1307 486 989 -21 1307 114 b 674 992 1307 857 989 992 z m 674 201 b 375 486 483 201 375 308 b 674 769 375 663 483 769 b 972 486 865 769 972 663 b 674 201 972 308 865 201 z m 496 1282 b 378 1163 431 1282 378 1228 b 496 1044 378 1097 431 1044 b 615 1163 561 1044 615 1097 b 496 1282 615 1228 561 1282 z m 850 1282 b 732 1163 785 1282 732 1228 b 850 1044 732 1097 785 1044 b 969 1163 915 1044 969 1097 b 850 1282 969 1228 915 1282 z "},"Ò":{"ha":1349,"x_min":0,"x_max":0,"o":"m 674 992 b 42 486 358 992 42 857 b 674 -21 42 114 358 -21 b 1307 486 989 -21 1307 114 b 674 992 1307 857 989 992 z m 674 201 b 375 486 483 201 375 308 b 674 769 375 663 483 769 b 972 486 865 769 972 663 b 674 201 972 308 865 201 z m 682 1257 l 379 1257 l 578 1051 l 801 1051 z "},"Ő":{"ha":1349,"x_min":0,"x_max":0,"o":"m 674 992 b 42 486 358 992 42 857 b 674 -21 42 114 358 -21 b 1307 486 989 -21 1307 114 b 674 992 1307 857 989 992 z m 674 201 b 375 486 483 201 375 308 b 674 769 375 663 483 769 b 972 486 865 769 972 663 b 674 201 972 308 865 201 z m 860 1257 l 742 1051 l 965 1051 l 1163 1257 z m 500 1257 l 381 1051 l 606 1051 l 803 1257 z "},"Ō":{"ha":1349,"x_min":0,"x_max":0,"o":"m 674 992 b 42 486 358 992 42 857 b 674 -21 42 114 358 -21 b 1307 486 989 -21 1307 114 b 674 992 1307 857 989 992 z m 674 201 b 375 486 483 201 375 308 b 674 769 375 663 483 769 b 972 486 865 769 972 663 b 674 201 972 308 865 201 z m 353 1221 l 353 1075 l 996 1075 l 996 1221 z "},"Ǿ":{"ha":1349,"x_min":0,"x_max":0,"o":"m 1167 832 l 1243 903 l 1133 1022 l 1026 924 b 674 992 921 971 797 992 b 42 486 358 992 42 857 b 181 140 42 332 96 219 l 104 68 l 215 -51 l 322 47 b 674 -21 426 0 550 -21 b 1307 486 989 -21 1307 114 b 1167 832 1307 639 1253 751 z m 375 486 b 674 769 375 663 483 769 b 828 740 733 769 785 760 l 404 346 b 375 486 385 386 375 432 z m 674 201 b 519 232 614 201 563 213 l 944 625 b 972 486 963 586 972 539 b 674 201 972 308 865 201 z m 665 1257 l 547 1051 l 771 1051 l 968 1257 z "},"Õ":{"ha":1349,"x_min":0,"x_max":0,"o":"m 674 992 b 42 486 358 992 42 857 b 674 -21 42 114 358 -21 b 1307 486 989 -21 1307 114 b 674 992 1307 857 989 992 z m 674 201 b 375 486 483 201 375 308 b 674 769 375 663 483 769 b 972 486 865 769 972 663 b 674 201 972 308 865 201 z m 814 1251 b 781 1196 814 1225 815 1196 b 515 1271 717 1196 646 1271 b 363 1057 410 1271 363 1178 l 532 1057 b 565 1111 532 1085 536 1111 b 831 1036 621 1111 699 1036 b 985 1251 961 1036 985 1160 z "},"Ŕ":{"ha":1222,"x_min":0,"x_max":0,"o":"m 854 0 l 1208 0 l 978 358 b 1176 650 1101 408 1176 503 b 761 972 1176 849 1029 972 l 69 972 l 69 0 l 399 0 l 399 315 l 657 315 z m 399 747 l 714 747 b 842 650 801 747 842 714 b 714 538 842 588 811 538 l 399 538 z m 560 1257 l 442 1051 l 665 1051 l 863 1257 z "},"Ř":{"ha":1222,"x_min":0,"x_max":0,"o":"m 854 0 l 1208 0 l 978 358 b 1176 650 1101 408 1176 503 b 761 972 1176 849 1029 972 l 69 972 l 69 0 l 399 0 l 399 315 l 657 315 z m 399 747 l 714 747 b 842 650 801 747 842 714 b 714 538 842 588 811 538 l 399 538 z m 693 1257 l 597 1150 l 501 1257 l 238 1257 l 443 1051 l 751 1051 l 957 1257 z "},"Ŗ":{"ha":1222,"x_min":0,"x_max":0,"o":"m 854 0 l 1208 0 l 978 358 b 1176 650 1101 408 1176 503 b 761 972 1176 849 1029 972 l 69 972 l 69 0 l 399 0 l 399 315 l 657 315 z m 399 747 l 714 747 b 842 650 801 747 842 714 b 714 538 842 588 811 538 l 399 538 z m 494 -92 l 439 -324 l 636 -324 l 783 -92 z "},"Ś":{"ha":1210,"x_min":0,"x_max":0,"o":"m 665 607 b 378 696 499 624 378 629 b 581 771 378 751 447 771 b 785 675 707 771 785 742 l 1119 675 b 585 992 1119 843 997 992 b 50 681 207 992 50 878 b 454 378 50 486 156 424 b 828 274 733 335 828 339 b 619 200 828 219 750 200 b 372 315 483 200 372 225 l 28 315 b 601 -21 28 111 190 -21 b 1182 308 983 -21 1182 75 b 665 607 1182 554 969 575 z m 568 1257 l 450 1051 l 674 1051 l 871 1257 z "},"Š":{"ha":1210,"x_min":0,"x_max":0,"o":"m 665 607 b 378 696 499 624 378 629 b 581 771 378 751 447 771 b 785 675 707 771 785 742 l 1119 675 b 585 992 1119 843 997 992 b 50 681 207 992 50 878 b 454 378 50 486 156 424 b 828 274 733 335 828 339 b 619 200 828 219 750 200 b 372 315 483 200 372 225 l 28 315 b 601 -21 28 111 190 -21 b 1182 308 983 -21 1182 75 b 665 607 1182 554 969 575 z m 700 1257 l 604 1150 l 508 1257 l 244 1257 l 450 1051 l 758 1051 l 964 1257 z "},"Ŝ":{"ha":1210,"x_min":0,"x_max":0,"o":"m 665 607 b 378 696 499 624 378 629 b 581 771 378 751 447 771 b 785 675 707 771 785 742 l 1119 675 b 585 992 1119 843 997 992 b 50 681 207 992 50 878 b 454 378 50 486 156 424 b 828 274 733 335 828 339 b 619 200 828 219 750 200 b 372 315 483 200 372 225 l 28 315 b 601 -21 28 111 190 -21 b 1182 308 983 -21 1182 75 b 665 607 1182 554 969 575 z m 964 1051 l 758 1257 l 450 1257 l 244 1051 l 508 1051 l 604 1158 l 700 1051 z "},"Ș":{"ha":1210,"x_min":0,"x_max":0,"o":"m 665 607 b 378 696 499 624 378 629 b 581 771 378 751 447 771 b 785 675 707 771 785 742 l 1119 675 b 585 992 1119 843 997 992 b 50 681 207 992 50 878 b 454 378 50 486 156 424 b 828 274 733 335 828 339 b 619 200 828 219 750 200 b 372 315 483 200 372 225 l 28 315 b 601 -21 28 111 190 -21 b 1182 308 983 -21 1182 75 b 665 607 1182 554 969 575 z m 474 -92 l 418 -324 l 615 -324 l 763 -92 z "},"Ť":{"ha":1149,"x_min":0,"x_max":0,"o":"m 1107 972 l 42 972 l 42 747 l 410 747 l 410 0 l 739 0 l 739 747 l 1107 747 z m 669 1257 l 574 1150 l 478 1257 l 214 1257 l 419 1051 l 728 1051 l 933 1257 z "},"Ţ":{"ha":1149,"x_min":0,"x_max":0,"o":"m 1107 972 l 42 972 l 42 747 l 410 747 l 410 0 l 739 0 l 739 747 l 1107 747 z m 429 -92 l 374 -324 l 571 -324 l 718 -92 z "},"Ú":{"ha":1219,"x_min":0,"x_max":0,"o":"m 821 972 l 821 433 b 610 201 821 235 740 201 b 399 433 478 201 399 235 l 399 972 l 69 972 l 69 407 b 610 -21 69 31 333 -21 b 1150 407 886 -21 1150 31 l 1150 972 z m 614 1257 l 496 1051 l 719 1051 l 917 1257 z "},"Ŭ":{"ha":1219,"x_min":0,"x_max":0,"o":"m 821 972 l 821 433 b 610 201 821 235 740 201 b 399 433 478 201 399 235 l 399 972 l 69 972 l 69 407 b 610 -21 69 31 333 -21 b 1150 407 886 -21 1150 31 l 1150 972 z m 718 1257 b 610 1176 713 1203 678 1176 b 503 1257 543 1176 508 1203 l 340 1257 b 610 1044 340 1128 422 1044 b 881 1257 799 1044 881 1128 z "},"Û":{"ha":1219,"x_min":0,"x_max":0,"o":"m 821 972 l 821 433 b 610 201 821 235 740 201 b 399 433 478 201 399 235 l 399 972 l 69 972 l 69 407 b 610 -21 69 31 333 -21 b 1150 407 886 -21 1150 31 l 1150 972 z m 969 1051 l 764 1257 l 456 1257 l 250 1051 l 514 1051 l 610 1158 l 706 1051 z "},"Ü":{"ha":1219,"x_min":0,"x_max":0,"o":"m 821 972 l 821 433 b 610 201 821 235 740 201 b 399 433 478 201 399 235 l 399 972 l 69 972 l 69 407 b 610 -21 69 31 333 -21 b 1150 407 886 -21 1150 31 l 1150 972 z m 432 1282 b 314 1163 367 1282 314 1228 b 432 1044 314 1097 367 1044 b 551 1163 497 1044 551 1097 b 432 1282 551 1228 497 1282 z m 786 1282 b 668 1163 721 1282 668 1228 b 786 1044 668 1097 721 1044 b 906 1163 851 1044 906 1097 b 786 1282 906 1228 851 1282 z "},"Ù":{"ha":1219,"x_min":0,"x_max":0,"o":"m 821 972 l 821 433 b 610 201 821 235 740 201 b 399 433 478 201 399 235 l 399 972 l 69 972 l 69 407 b 610 -21 69 31 333 -21 b 1150 407 886 -21 1150 31 l 1150 972 z m 632 1257 l 329 1257 l 528 1051 l 751 1051 z "},"Ű":{"ha":1219,"x_min":0,"x_max":0,"o":"m 821 972 l 821 433 b 610 201 821 235 740 201 b 399 433 478 201 399 235 l 399 972 l 69 972 l 69 407 b 610 -21 69 31 333 -21 b 1150 407 886 -21 1150 31 l 1150 972 z m 794 1257 l 676 1051 l 900 1051 l 1097 1257 z m 435 1257 l 315 1051 l 540 1051 l 738 1257 z "},"Ū":{"ha":1219,"x_min":0,"x_max":0,"o":"m 821 972 l 821 433 b 610 201 821 235 740 201 b 399 433 478 201 399 235 l 399 972 l 69 972 l 69 407 b 610 -21 69 31 333 -21 b 1150 407 886 -21 1150 31 l 1150 972 z m 289 1221 l 289 1075 l 932 1075 l 932 1221 z "},"Ů":{"ha":1219,"x_min":0,"x_max":0,"o":"m 821 972 l 821 433 b 610 201 821 235 740 201 b 399 433 478 201 399 235 l 399 972 l 69 972 l 69 407 b 610 -21 69 31 333 -21 b 1150 407 886 -21 1150 31 l 1150 972 z m 611 1407 b 422 1218 503 1407 422 1326 b 611 1031 422 1111 503 1031 b 799 1218 719 1031 799 1111 b 611 1407 799 1326 719 1407 z m 611 1149 b 542 1218 568 1149 542 1178 b 611 1288 542 1258 568 1288 b 681 1218 653 1288 681 1258 b 611 1149 681 1178 653 1149 z "},"Ũ":{"ha":1219,"x_min":0,"x_max":0,"o":"m 821 972 l 821 433 b 610 201 821 235 740 201 b 399 433 478 201 399 235 l 399 972 l 69 972 l 69 407 b 610 -21 69 31 333 -21 b 1150 407 886 -21 1150 31 l 1150 972 z m 750 1251 b 717 1196 750 1225 751 1196 b 451 1271 653 1196 582 1271 b 299 1057 346 1271 299 1178 l 468 1057 b 501 1111 468 1085 472 1111 b 767 1036 557 1111 635 1036 b 921 1251 897 1036 921 1160 z "},"Ẃ":{"ha":1689,"x_min":0,"x_max":0,"o":"m 1346 972 l 1167 318 l 989 972 l 699 972 l 521 318 l 342 972 l 0 972 l 317 0 l 685 0 l 844 585 l 1003 0 l 1371 0 l 1689 972 z m 849 1257 l 731 1051 l 954 1051 l 1151 1257 z "},"Ŵ":{"ha":1689,"x_min":0,"x_max":0,"o":"m 1346 972 l 1167 318 l 989 972 l 699 972 l 521 318 l 342 972 l 0 972 l 317 0 l 685 0 l 844 585 l 1003 0 l 1371 0 l 1689 972 z m 1204 1051 l 999 1257 l 690 1257 l 485 1051 l 749 1051 l 844 1158 l 940 1051 z "},"Ẅ":{"ha":1689,"x_min":0,"x_max":0,"o":"m 1346 972 l 1167 318 l 989 972 l 699 972 l 521 318 l 342 972 l 0 972 l 317 0 l 685 0 l 844 585 l 1003 0 l 1371 0 l 1689 972 z m 667 1282 b 549 1163 601 1282 549 1228 b 667 1044 549 1097 601 1044 b 786 1163 732 1044 786 1097 b 667 1282 786 1228 732 1282 z m 1021 1282 b 903 1163 956 1282 903 1228 b 1021 1044 903 1097 956 1044 b 1140 1163 1086 1044 1140 1097 b 1021 1282 1140 1228 1086 1282 z "},"Ẁ":{"ha":1689,"x_min":0,"x_max":0,"o":"m 1346 972 l 1167 318 l 989 972 l 699 972 l 521 318 l 342 972 l 0 972 l 317 0 l 685 0 l 844 585 l 1003 0 l 1371 0 l 1689 972 z m 839 1257 l 536 1257 l 735 1051 l 958 1051 z "},"Ý":{"ha":1229,"x_min":0,"x_max":0,"o":"m 864 972 l 614 585 l 365 972 l 0 972 l 450 344 l 450 0 l 779 0 l 779 344 l 1229 972 z m 619 1257 l 501 1051 l 725 1051 l 922 1257 z "},"Ŷ":{"ha":1229,"x_min":0,"x_max":0,"o":"m 864 972 l 614 585 l 365 972 l 0 972 l 450 344 l 450 0 l 779 0 l 779 344 l 1229 972 z m 974 1051 l 768 1257 l 460 1257 l 254 1051 l 518 1051 l 614 1158 l 710 1051 z "},"Ÿ":{"ha":1229,"x_min":0,"x_max":0,"o":"m 864 972 l 614 585 l 365 972 l 0 972 l 450 344 l 450 0 l 779 0 l 779 344 l 1229 972 z m 436 1282 b 318 1163 371 1282 318 1228 b 436 1044 318 1097 371 1044 b 556 1163 501 1044 556 1097 b 436 1282 556 1228 501 1282 z m 790 1282 b 672 1163 725 1282 672 1228 b 790 1044 672 1097 725 1044 b 910 1163 856 1044 910 1097 b 790 1282 910 1228 856 1282 z "},"Ỳ":{"ha":1229,"x_min":0,"x_max":0,"o":"m 864 972 l 614 585 l 365 972 l 0 972 l 450 344 l 450 0 l 779 0 l 779 344 l 1229 972 z m 622 1257 l 319 1257 l 518 1051 l 742 1051 z "},"Ź":{"ha":1175,"x_min":0,"x_max":0,"o":"m 519 224 l 1121 774 l 1121 972 l 68 972 l 68 747 l 643 747 l 42 197 l 42 0 l 1133 0 l 1133 224 z m 578 1257 l 460 1051 l 683 1051 l 881 1257 z "},"Ž":{"ha":1175,"x_min":0,"x_max":0,"o":"m 519 224 l 1121 774 l 1121 972 l 68 972 l 68 747 l 643 747 l 42 197 l 42 0 l 1133 0 l 1133 224 z m 711 1257 l 615 1150 l 519 1257 l 256 1257 l 461 1051 l 769 1051 l 975 1257 z "},"Ż":{"ha":1175,"x_min":0,"x_max":0,"o":"m 519 224 l 1121 774 l 1121 972 l 68 972 l 68 747 l 643 747 l 42 197 l 42 0 l 1133 0 l 1133 224 z m 614 1282 b 496 1163 549 1282 496 1228 b 614 1044 496 1097 549 1044 b 733 1163 679 1044 733 1097 b 614 1282 733 1228 679 1282 z "},"á":{"ha":979,"x_min":0,"x_max":0,"o":"m 479 760 b 64 515 239 760 90 696 l 340 515 b 479 589 350 561 372 589 b 621 474 608 589 621 544 l 621 464 b 28 200 117 492 28 367 b 356 -21 28 54 146 -21 b 621 79 482 -21 576 31 l 621 0 l 924 0 l 924 474 b 479 760 924 722 718 760 z m 621 211 b 432 132 581 164 510 132 b 322 207 364 132 322 151 b 621 296 322 296 436 304 z m 481 1021 l 363 815 l 586 815 l 783 1021 z "},"ă":{"ha":979,"x_min":0,"x_max":0,"o":"m 479 760 b 64 515 239 760 90 696 l 340 515 b 479 589 350 561 372 589 b 621 474 608 589 621 544 l 621 464 b 28 200 117 492 28 367 b 356 -21 28 54 146 -21 b 621 79 482 -21 576 31 l 621 0 l 924 0 l 924 474 b 479 760 924 722 718 760 z m 621 211 b 432 132 581 164 510 132 b 322 207 364 132 322 151 b 621 296 322 296 436 304 z m 611 1021 b 503 940 606 967 571 940 b 396 1021 436 940 401 967 l 233 1021 b 503 808 233 892 315 808 b 774 1021 692 808 774 892 z "},"â":{"ha":979,"x_min":0,"x_max":0,"o":"m 479 760 b 64 515 239 760 90 696 l 340 515 b 479 589 350 561 372 589 b 621 474 608 589 621 544 l 621 464 b 28 200 117 492 28 367 b 356 -21 28 54 146 -21 b 621 79 482 -21 576 31 l 621 0 l 924 0 l 924 474 b 479 760 924 722 718 760 z m 621 211 b 432 132 581 164 510 132 b 322 207 364 132 322 151 b 621 296 322 296 436 304 z m 863 815 l 657 1021 l 349 1021 l 143 815 l 407 815 l 503 922 l 599 815 z "},"ä":{"ha":979,"x_min":0,"x_max":0,"o":"m 479 760 b 64 515 239 760 90 696 l 340 515 b 479 589 350 561 372 589 b 621 474 608 589 621 544 l 621 464 b 28 200 117 492 28 367 b 356 -21 28 54 146 -21 b 621 79 482 -21 576 31 l 621 0 l 924 0 l 924 474 b 479 760 924 722 718 760 z m 621 211 b 432 132 581 164 510 132 b 322 207 364 132 322 151 b 621 296 322 296 436 304 z m 325 1046 b 207 926 260 1046 207 992 b 325 808 207 861 260 808 b 444 926 390 808 444 861 b 325 1046 444 992 390 1046 z m 679 1046 b 561 926 614 1046 561 992 b 679 808 561 861 614 808 b 799 926 744 808 799 861 b 679 1046 799 992 744 1046 z "},"à":{"ha":979,"x_min":0,"x_max":0,"o":"m 479 760 b 64 515 239 760 90 696 l 340 515 b 479 589 350 561 372 589 b 621 474 608 589 621 544 l 621 464 b 28 200 117 492 28 367 b 356 -21 28 54 146 -21 b 621 79 482 -21 576 31 l 621 0 l 924 0 l 924 474 b 479 760 924 722 718 760 z m 621 211 b 432 132 581 164 510 132 b 322 207 364 132 322 151 b 621 296 322 296 436 304 z m 525 1021 l 222 1021 l 421 815 l 644 815 z "},"ā":{"ha":979,"x_min":0,"x_max":0,"o":"m 479 760 b 64 515 239 760 90 696 l 340 515 b 479 589 350 561 372 589 b 621 474 608 589 621 544 l 621 464 b 28 200 117 492 28 367 b 356 -21 28 54 146 -21 b 621 79 482 -21 576 31 l 621 0 l 924 0 l 924 474 b 479 760 924 722 718 760 z m 621 211 b 432 132 581 164 510 132 b 322 207 364 132 322 151 b 621 296 322 296 436 304 z m 182 985 l 182 839 l 825 839 l 825 985 z "},"å":{"ha":979,"x_min":0,"x_max":0,"o":"m 479 760 b 64 515 239 760 90 696 l 340 515 b 479 589 350 561 372 589 b 621 474 608 589 621 544 l 621 464 b 28 200 117 492 28 367 b 356 -21 28 54 146 -21 b 621 79 482 -21 576 31 l 621 0 l 924 0 l 924 474 b 479 760 924 722 718 760 z m 621 211 b 432 132 581 164 510 132 b 322 207 364 132 322 151 b 621 296 322 296 436 304 z m 504 1171 b 315 982 396 1171 315 1090 b 504 794 315 875 396 794 b 692 982 613 794 692 875 b 504 1171 692 1090 613 1171 z m 504 913 b 435 982 461 913 435 942 b 504 1051 435 1022 461 1051 b 574 982 546 1051 574 1022 b 504 913 574 942 546 913 z "},"ã":{"ha":979,"x_min":0,"x_max":0,"o":"m 479 760 b 64 515 239 760 90 696 l 340 515 b 479 589 350 561 372 589 b 621 474 608 589 621 544 l 621 464 b 28 200 117 492 28 367 b 356 -21 28 54 146 -21 b 621 79 482 -21 576 31 l 621 0 l 924 0 l 924 474 b 479 760 924 722 718 760 z m 621 211 b 432 132 581 164 510 132 b 322 207 364 132 322 151 b 621 296 322 296 436 304 z m 643 1015 b 610 960 643 989 644 960 b 344 1035 546 960 475 1035 b 192 821 239 1035 192 942 l 361 821 b 394 875 361 849 365 875 b 660 800 450 875 528 800 b 814 1015 790 800 814 924 z "},"ǽ":{"ha":1601,"x_min":0,"x_max":0,"o":"m 1117 760 b 813 683 1010 760 900 738 b 479 760 738 746 617 760 b 64 515 238 760 90 696 l 340 515 b 479 589 350 561 372 589 b 621 474 608 589 621 544 l 621 464 b 28 207 117 492 28 358 b 388 -21 28 42 174 -21 b 751 104 524 -21 660 13 b 1124 -21 843 15 985 -21 b 1561 251 1325 -21 1514 47 l 1290 251 b 1124 164 1265 213 1219 164 b 931 301 1003 164 949 225 l 1572 301 b 1117 760 1592 646 1326 760 z m 621 207 b 432 132 582 161 513 132 b 322 207 364 132 322 153 b 621 296 322 296 436 304 z m 936 456 b 1117 576 958 524 1011 576 b 1289 456 1210 576 1267 532 z m 806 1021 l 688 815 l 911 815 l 1108 1021 z "},"ć":{"ha":1006,"x_min":0,"x_max":0,"o":"m 511 176 b 318 369 371 176 318 269 b 511 563 318 469 371 563 b 697 438 619 563 678 508 l 978 438 b 511 760 940 672 721 760 b 28 369 283 760 28 656 b 511 -21 28 83 283 -21 b 978 303 721 -21 940 67 l 697 303 b 511 176 678 232 619 176 z m 507 1021 l 389 815 l 613 815 l 810 1021 z "},"č":{"ha":1006,"x_min":0,"x_max":0,"o":"m 511 176 b 318 369 371 176 318 269 b 511 563 318 469 371 563 b 697 438 619 563 678 508 l 978 438 b 511 760 940 672 721 760 b 28 369 283 760 28 656 b 511 -21 28 83 283 -21 b 978 303 721 -21 940 67 l 697 303 b 511 176 678 232 619 176 z m 599 1021 l 503 914 l 407 1021 l 143 1021 l 349 815 l 657 815 l 863 1021 z "},"ĉ":{"ha":1006,"x_min":0,"x_max":0,"o":"m 511 176 b 318 369 371 176 318 269 b 511 563 318 469 371 563 b 697 438 619 563 678 508 l 978 438 b 511 760 940 672 721 760 b 28 369 283 760 28 656 b 511 -21 28 83 283 -21 b 978 303 721 -21 940 67 l 697 303 b 511 176 678 232 619 176 z m 863 815 l 657 1021 l 349 1021 l 143 815 l 407 815 l 503 922 l 599 815 z "},"ċ":{"ha":1006,"x_min":0,"x_max":0,"o":"m 511 176 b 318 369 371 176 318 269 b 511 563 318 469 371 563 b 697 438 619 563 678 508 l 978 438 b 511 760 940 672 721 760 b 28 369 283 760 28 656 b 511 -21 28 83 283 -21 b 978 303 721 -21 940 67 l 697 303 b 511 176 678 232 619 176 z m 503 1046 b 385 926 438 1046 385 992 b 503 808 385 861 438 808 b 622 926 568 808 622 861 b 503 1046 622 992 568 1046 z "},"ď":{"ha":1340,"x_min":0,"x_max":0,"o":"m 683 972 l 683 651 b 432 760 621 722 532 760 b 28 369 203 760 28 621 b 432 -21 28 118 203 -21 b 683 89 532 -21 621 17 l 683 0 l 986 0 l 986 972 z m 511 176 b 317 369 378 176 317 269 b 511 563 317 469 378 563 b 710 369 654 563 710 478 b 511 176 710 261 654 176 z m 1160 972 l 1067 635 l 1251 635 l 1396 972 z "},"é":{"ha":982,"x_min":0,"x_max":0,"o":"m 499 760 b 28 369 269 760 28 656 b 506 -21 28 83 268 -21 b 942 250 707 -21 894 47 l 672 250 b 506 164 647 213 601 164 b 313 301 383 164 331 225 l 953 301 b 499 760 974 646 708 760 z m 318 456 b 499 575 339 524 393 575 b 669 456 592 575 647 532 z m 496 1021 l 378 815 l 601 815 l 799 1021 z "},"ĕ":{"ha":982,"x_min":0,"x_max":0,"o":"m 499 760 b 28 369 269 760 28 656 b 506 -21 28 83 268 -21 b 942 250 707 -21 894 47 l 672 250 b 506 164 647 213 601 164 b 313 301 383 164 331 225 l 953 301 b 499 760 974 646 708 760 z m 318 456 b 499 575 339 524 393 575 b 669 456 592 575 647 532 z m 599 1021 b 490 940 593 967 558 940 b 383 1021 424 940 389 967 l 221 1021 b 490 808 221 892 303 808 b 761 1021 679 808 761 892 z "},"ě":{"ha":982,"x_min":0,"x_max":0,"o":"m 499 760 b 28 369 269 760 28 656 b 506 -21 28 83 268 -21 b 942 250 707 -21 894 47 l 672 250 b 506 164 647 213 601 164 b 313 301 383 164 331 225 l 953 301 b 499 760 974 646 708 760 z m 318 456 b 499 575 339 524 393 575 b 669 456 592 575 647 532 z m 586 1021 l 490 914 l 394 1021 l 131 1021 l 336 815 l 644 815 l 850 1021 z "},"ê":{"ha":982,"x_min":0,"x_max":0,"o":"m 499 760 b 28 369 269 760 28 656 b 506 -21 28 83 268 -21 b 942 250 707 -21 894 47 l 672 250 b 506 164 647 213 601 164 b 313 301 383 164 331 225 l 953 301 b 499 760 974 646 708 760 z m 318 456 b 499 575 339 524 393 575 b 669 456 592 575 647 532 z m 850 815 l 644 1021 l 336 1021 l 131 815 l 394 815 l 490 922 l 586 815 z "},"ë":{"ha":982,"x_min":0,"x_max":0,"o":"m 499 760 b 28 369 269 760 28 656 b 506 -21 28 83 268 -21 b 942 250 707 -21 894 47 l 672 250 b 506 164 647 213 601 164 b 313 301 383 164 331 225 l 953 301 b 499 760 974 646 708 760 z m 318 456 b 499 575 339 524 393 575 b 669 456 592 575 647 532 z m 313 1046 b 194 926 247 1046 194 992 b 313 808 194 861 247 808 b 432 926 378 808 432 861 b 313 1046 432 992 378 1046 z m 667 1046 b 549 926 601 1046 549 992 b 667 808 549 861 601 808 b 786 926 732 808 786 861 b 667 1046 786 992 732 1046 z "},"ė":{"ha":982,"x_min":0,"x_max":0,"o":"m 499 760 b 28 369 269 760 28 656 b 506 -21 28 83 268 -21 b 942 250 707 -21 894 47 l 672 250 b 506 164 647 213 601 164 b 313 301 383 164 331 225 l 953 301 b 499 760 974 646 708 760 z m 318 456 b 499 575 339 524 393 575 b 669 456 592 575 647 532 z m 490 1046 b 372 926 425 1046 372 992 b 490 808 372 861 425 808 b 610 926 556 808 610 861 b 490 1046 610 992 556 1046 z "},"è":{"ha":982,"x_min":0,"x_max":0,"o":"m 499 760 b 28 369 269 760 28 656 b 506 -21 28 83 268 -21 b 942 250 707 -21 894 47 l 672 250 b 506 164 647 213 601 164 b 313 301 383 164 331 225 l 953 301 b 499 760 974 646 708 760 z m 318 456 b 499 575 339 524 393 575 b 669 456 592 575 647 532 z m 513 1021 l 210 1021 l 408 815 l 632 815 z "},"ē":{"ha":982,"x_min":0,"x_max":0,"o":"m 499 760 b 28 369 269 760 28 656 b 506 -21 28 83 268 -21 b 942 250 707 -21 894 47 l 672 250 b 506 164 647 213 601 164 b 313 301 383 164 331 225 l 953 301 b 499 760 974 646 708 760 z m 318 456 b 499 575 339 524 393 575 b 669 456 592 575 647 532 z m 169 985 l 169 839 l 813 839 l 813 985 z "},"ğ":{"ha":1042,"x_min":0,"x_max":0,"o":"m 683 740 l 683 665 b 432 760 621 729 532 760 b 28 396 203 760 28 647 b 432 46 28 144 203 46 b 683 133 532 46 621 72 l 683 68 b 488 -74 683 -58 590 -74 b 325 -21 407 -74 339 -61 l 42 -21 b 488 -258 49 -171 197 -258 b 986 68 728 -258 986 -225 l 986 740 z m 511 229 b 317 396 382 229 317 296 b 511 563 317 496 382 563 b 710 396 649 563 710 504 b 511 229 710 288 649 229 z m 642 1021 b 533 940 636 967 601 940 b 426 1021 467 940 432 967 l 264 1021 b 533 808 264 892 346 808 b 804 1021 722 808 804 892 z "},"ĝ":{"ha":1042,"x_min":0,"x_max":0,"o":"m 683 740 l 683 665 b 432 760 621 729 532 760 b 28 396 203 760 28 647 b 432 46 28 144 203 46 b 683 133 532 46 621 72 l 683 68 b 488 -74 683 -58 590 -74 b 325 -21 407 -74 339 -61 l 42 -21 b 488 -258 49 -171 197 -258 b 986 68 728 -258 986 -225 l 986 740 z m 511 229 b 317 396 382 229 317 296 b 511 563 317 496 382 563 b 710 396 649 563 710 504 b 511 229 710 288 649 229 z m 896 815 l 690 1021 l 382 1021 l 176 815 l 440 815 l 536 922 l 632 815 z "},"ģ":{"ha":1042,"x_min":0,"x_max":0,"o":"m 683 740 l 683 665 b 432 760 621 729 532 760 b 28 396 203 760 28 647 b 432 46 28 144 203 46 b 683 133 532 46 621 72 l 683 68 b 488 -74 683 -58 590 -74 b 325 -21 407 -74 339 -61 l 42 -21 b 488 -258 49 -171 197 -258 b 986 68 728 -258 986 -225 l 986 740 z m 511 229 b 317 396 382 229 317 296 b 511 563 317 496 382 563 b 710 396 649 563 710 504 b 511 229 710 288 649 229 z m 542 1153 l 397 815 l 635 815 l 726 1153 z "},"ġ":{"ha":1042,"x_min":0,"x_max":0,"o":"m 683 740 l 683 665 b 432 760 621 729 532 760 b 28 396 203 760 28 647 b 432 46 28 144 203 46 b 683 133 532 46 621 72 l 683 68 b 488 -74 683 -58 590 -74 b 325 -21 407 -74 339 -61 l 42 -21 b 488 -258 49 -171 197 -258 b 986 68 728 -258 986 -225 l 986 740 z m 511 229 b 317 396 382 229 317 296 b 511 563 317 496 382 563 b 710 396 649 563 710 504 b 511 229 710 288 649 229 z m 533 1046 b 415 926 468 1046 415 992 b 533 808 415 861 468 808 b 653 926 599 808 653 861 b 533 1046 653 992 599 1046 z "},"ĥ":{"ha":996,"x_min":0,"x_max":0,"o":"m 618 760 b 358 646 476 760 388 685 l 358 972 l 56 972 l 56 0 l 358 0 l 358 407 b 500 553 358 490 397 553 b 638 407 604 553 638 489 l 638 0 l 940 0 l 940 476 b 618 760 940 665 822 760 z m 575 1051 l 369 1257 l 61 1257 l -144 1051 l 119 1051 l 215 1158 l 311 1051 z "},"ĳ":{"ha":831,"x_min":0,"x_max":0,"o":"m 207 796 b 364 939 299 796 364 847 b 207 1083 364 1031 299 1083 b 50 939 115 1083 50 1031 b 207 796 50 847 115 796 z m 56 0 l 358 0 l 358 740 l 56 740 z m 624 796 b 781 939 715 796 781 847 b 624 1083 781 1031 715 1083 b 467 939 532 1083 467 1031 b 624 796 467 847 532 796 z m 472 39 b 340 -36 472 -21 460 -43 l 340 -253 b 496 -258 382 -257 439 -258 b 775 39 736 -258 775 -117 l 775 740 l 472 740 z "},"ı":{"ha":414,"x_min":0,"x_max":0,"o":"m 56 0 l 358 0 l 358 740 l 56 740 z "},"ĵ":{"ha":414,"x_min":0,"x_max":0,"o":"m 56 39 b -76 -36 56 -21 43 -43 l -76 -253 b 79 -258 -35 -257 22 -258 b 358 39 319 -258 358 -117 l 358 740 l 56 740 z m 560 815 l 354 1021 l 46 1021 l -160 815 l 104 815 l 200 922 l 296 815 z "},"ķ":{"ha":986,"x_min":0,"x_max":0,"o":"m 631 0 l 972 0 l 635 439 l 957 740 l 592 740 l 360 511 l 360 972 l 56 972 l 56 0 l 360 0 l 360 179 l 442 257 z m 356 -92 l 300 -324 l 497 -324 l 644 -92 z "},"ĸ":{"ha":986,"x_min":0,"x_max":0,"o":"m 631 0 l 972 0 l 635 439 l 957 740 l 592 740 l 360 511 l 360 740 l 56 740 l 56 0 l 360 0 l 360 179 l 442 257 z "},"ĺ":{"ha":414,"x_min":0,"x_max":0,"o":"m 56 1025 l 56 0 l 358 0 l 358 1025 z m 213 1310 l 94 1104 l 318 1104 l 515 1310 z "},"ľ":{"ha":713,"x_min":0,"x_max":0,"o":"m 56 1025 l 56 0 l 358 0 l 358 1025 z m 532 972 l 439 635 l 624 635 l 768 972 z "},"ļ":{"ha":414,"x_min":0,"x_max":0,"o":"m 56 1025 l 56 0 l 358 0 l 358 1025 z m 63 -92 l 7 -324 l 204 -324 l 351 -92 z "},"ŀ":{"ha":794,"x_min":0,"x_max":0,"o":"m 601 639 b 451 489 518 639 451 571 b 601 338 451 406 518 338 b 753 489 685 338 753 406 b 601 639 753 571 685 639 z m 56 1025 l 56 0 l 358 0 l 358 1025 z "},"ń":{"ha":996,"x_min":0,"x_max":0,"o":"m 618 760 b 358 646 475 760 388 685 l 358 740 l 56 740 l 56 0 l 358 0 l 358 407 b 500 553 358 490 396 553 b 638 407 604 553 638 489 l 638 0 l 940 0 l 940 476 b 618 760 940 665 822 760 z m 489 1021 l 371 815 l 594 815 l 792 1021 z "},"ň":{"ha":996,"x_min":0,"x_max":0,"o":"m 618 760 b 358 646 475 760 388 685 l 358 740 l 56 740 l 56 0 l 358 0 l 358 407 b 500 553 358 490 396 553 b 638 407 604 553 638 489 l 638 0 l 940 0 l 940 476 b 618 760 940 665 822 760 z m 593 1021 l 497 914 l 401 1021 l 138 1021 l 343 815 l 651 815 l 857 1021 z "},"ņ":{"ha":996,"x_min":0,"x_max":0,"o":"m 618 760 b 358 646 475 760 388 685 l 358 740 l 56 740 l 56 0 l 358 0 l 358 407 b 500 553 358 490 396 553 b 638 407 604 553 638 489 l 638 0 l 940 0 l 940 476 b 618 760 940 665 822 760 z m 381 -92 l 325 -324 l 522 -324 l 669 -92 z "},"ñ":{"ha":996,"x_min":0,"x_max":0,"o":"m 618 760 b 358 646 475 760 388 685 l 358 740 l 56 740 l 56 0 l 358 0 l 358 407 b 500 553 358 490 396 553 b 638 407 604 553 638 489 l 638 0 l 940 0 l 940 476 b 618 760 940 665 822 760 z m 638 1015 b 604 960 638 989 639 960 b 339 1035 540 960 469 1035 b 186 821 233 1035 186 942 l 356 821 b 389 875 356 849 360 875 b 654 800 444 875 522 800 b 808 1015 785 800 808 924 z "},"ó":{"ha":1024,"x_min":0,"x_max":0,"o":"m 513 760 b 28 369 283 760 28 656 b 513 -21 28 83 283 -21 b 996 369 740 -21 996 83 b 513 760 996 656 740 760 z m 513 176 b 318 369 371 176 318 269 b 513 563 318 469 371 563 b 706 369 653 563 706 469 b 513 176 706 269 653 176 z m 503 1021 l 385 815 l 608 815 l 806 1021 z "},"ŏ":{"ha":1024,"x_min":0,"x_max":0,"o":"m 513 760 b 28 369 283 760 28 656 b 513 -21 28 83 283 -21 b 996 369 740 -21 996 83 b 513 760 996 656 740 760 z m 513 176 b 318 369 371 176 318 269 b 513 563 318 469 371 563 b 706 369 653 563 706 469 b 513 176 706 269 653 176 z m 619 1021 b 511 940 614 967 579 940 b 404 1021 444 940 410 967 l 242 1021 b 511 808 242 892 324 808 b 782 1021 700 808 782 892 z "},"ô":{"ha":1024,"x_min":0,"x_max":0,"o":"m 513 760 b 28 369 283 760 28 656 b 513 -21 28 83 283 -21 b 996 369 740 -21 996 83 b 513 760 996 656 740 760 z m 513 176 b 318 369 371 176 318 269 b 513 563 318 469 371 563 b 706 369 653 563 706 469 b 513 176 706 269 653 176 z m 871 815 l 665 1021 l 357 1021 l 151 815 l 415 815 l 511 922 l 607 815 z "},"ö":{"ha":1024,"x_min":0,"x_max":0,"o":"m 513 760 b 28 369 283 760 28 656 b 513 -21 28 83 283 -21 b 996 369 740 -21 996 83 b 513 760 996 656 740 760 z m 513 176 b 318 369 371 176 318 269 b 513 563 318 469 371 563 b 706 369 653 563 706 469 b 513 176 706 269 653 176 z m 333 1046 b 215 926 268 1046 215 992 b 333 808 215 861 268 808 b 453 926 399 808 453 861 b 333 1046 453 992 399 1046 z m 688 1046 b 569 926 622 1046 569 992 b 688 808 569 861 622 808 b 807 926 753 808 807 861 b 688 1046 807 992 753 1046 z "},"ò":{"ha":1024,"x_min":0,"x_max":0,"o":"m 513 760 b 28 369 283 760 28 656 b 513 -21 28 83 283 -21 b 996 369 740 -21 996 83 b 513 760 996 656 740 760 z m 513 176 b 318 369 371 176 318 269 b 513 563 318 469 371 563 b 706 369 653 563 706 469 b 513 176 706 269 653 176 z m 533 1021 l 231 1021 l 429 815 l 653 815 z "},"ő":{"ha":1024,"x_min":0,"x_max":0,"o":"m 513 760 b 28 369 283 760 28 656 b 513 -21 28 83 283 -21 b 996 369 740 -21 996 83 b 513 760 996 656 740 760 z m 513 176 b 318 369 371 176 318 269 b 513 563 318 469 371 563 b 706 369 653 563 706 469 b 513 176 706 269 653 176 z m 683 1021 l 565 815 l 789 815 l 986 1021 z m 324 1021 l 204 815 l 429 815 l 626 1021 z "},"ō":{"ha":1024,"x_min":0,"x_max":0,"o":"m 513 760 b 28 369 283 760 28 656 b 513 -21 28 83 283 -21 b 996 369 740 -21 996 83 b 513 760 996 656 740 760 z m 513 176 b 318 369 371 176 318 269 b 513 563 318 469 371 563 b 706 369 653 563 706 469 b 513 176 706 269 653 176 z m 190 985 l 190 839 l 833 839 l 833 985 z "},"ǿ":{"ha":1024,"x_min":0,"x_max":0,"o":"m 888 633 l 965 706 l 882 796 l 783 704 b 513 760 700 743 604 760 b 28 369 283 760 28 657 b 136 106 28 254 71 168 l 58 35 l 142 -56 l 240 36 b 513 -21 324 -4 419 -21 b 996 369 740 -21 996 83 b 888 633 996 486 953 572 z m 318 369 b 513 563 318 471 371 563 b 608 543 550 563 582 556 l 332 288 b 318 369 322 313 318 342 z m 513 178 b 415 197 474 178 442 185 l 692 453 b 706 369 701 426 706 399 b 513 178 706 269 653 178 z m 503 1021 l 385 815 l 608 815 l 806 1021 z "},"õ":{"ha":1024,"x_min":0,"x_max":0,"o":"m 513 760 b 28 369 283 760 28 656 b 513 -21 28 83 283 -21 b 996 369 740 -21 996 83 b 513 760 996 656 740 760 z m 513 176 b 318 369 371 176 318 269 b 513 563 318 469 371 563 b 706 369 653 563 706 469 b 513 176 706 269 653 176 z m 651 1015 b 618 960 651 989 653 960 b 353 1035 554 960 483 1035 b 200 821 247 1035 200 942 l 369 821 b 403 875 369 849 374 875 b 668 800 458 875 536 800 b 822 1015 799 800 822 924 z "},"ŕ":{"ha":764,"x_min":0,"x_max":0,"o":"m 629 760 b 358 626 468 760 386 675 l 358 740 l 56 740 l 56 0 l 358 0 l 358 315 b 557 525 358 431 401 525 b 711 492 624 525 674 507 l 736 492 l 736 747 b 629 760 711 756 676 760 z m 372 1021 l 254 815 l 478 815 l 675 1021 z "},"ř":{"ha":764,"x_min":0,"x_max":0,"o":"m 629 760 b 358 626 468 760 386 675 l 358 740 l 56 740 l 56 0 l 358 0 l 358 315 b 557 525 358 431 401 525 b 711 492 624 525 674 507 l 736 492 l 736 747 b 629 760 711 756 676 760 z m 492 1021 l 396 914 l 300 1021 l 36 1021 l 242 815 l 550 815 l 756 1021 z "},"ŗ":{"ha":764,"x_min":0,"x_max":0,"o":"m 629 760 b 358 626 468 760 386 675 l 358 740 l 56 740 l 56 0 l 358 0 l 358 315 b 557 525 358 431 401 525 b 711 492 624 525 674 507 l 736 492 l 736 747 b 629 760 711 756 676 760 z m 61 -92 l 6 -324 l 203 -324 l 350 -92 z "},"ś":{"ha":978,"x_min":0,"x_max":0,"o":"m 535 472 b 331 538 408 488 331 490 b 468 592 331 575 368 592 b 610 515 564 592 610 564 l 911 515 b 471 760 911 657 789 760 b 44 514 192 760 44 676 b 367 292 44 358 160 322 b 636 207 547 265 636 264 b 497 149 636 164 588 149 b 331 240 394 149 331 168 l 14 240 b 483 -21 14 64 171 -21 b 950 233 774 -21 950 43 b 535 472 950 426 760 446 z m 472 1021 l 354 815 l 578 815 l 775 1021 z "},"š":{"ha":978,"x_min":0,"x_max":0,"o":"m 535 472 b 331 538 408 488 331 490 b 468 592 331 575 368 592 b 610 515 564 592 610 564 l 911 515 b 471 760 911 657 789 760 b 44 514 192 760 44 676 b 367 292 44 358 160 322 b 636 207 547 265 636 264 b 497 149 636 164 588 149 b 331 240 394 149 331 168 l 14 240 b 483 -21 14 64 171 -21 b 950 233 774 -21 950 43 b 535 472 950 426 760 446 z m 578 1021 l 482 914 l 386 1021 l 122 1021 l 328 815 l 636 815 l 842 1021 z "},"ŝ":{"ha":978,"x_min":0,"x_max":0,"o":"m 535 472 b 331 538 408 488 331 490 b 468 592 331 575 368 592 b 610 515 564 592 610 564 l 911 515 b 471 760 911 657 789 760 b 44 514 192 760 44 676 b 367 292 44 358 160 322 b 636 207 547 265 636 264 b 497 149 636 164 588 149 b 331 240 394 149 331 168 l 14 240 b 483 -21 14 64 171 -21 b 950 233 774 -21 950 43 b 535 472 950 426 760 446 z m 842 815 l 636 1021 l 328 1021 l 122 815 l 386 815 l 482 922 l 578 815 z "},"ș":{"ha":978,"x_min":0,"x_max":0,"o":"m 535 472 b 331 538 408 488 331 490 b 468 592 331 575 368 592 b 610 515 564 592 610 564 l 911 515 b 471 760 911 657 789 760 b 44 514 192 760 44 676 b 367 292 44 358 160 322 b 636 207 547 265 636 264 b 497 149 636 164 588 149 b 331 240 394 149 331 168 l 14 240 b 483 -21 14 64 171 -21 b 950 233 774 -21 950 43 b 535 472 950 426 760 446 z m 365 -92 l 310 -324 l 507 -324 l 654 -92 z "},"ť":{"ha":726,"x_min":0,"x_max":0,"o":"m 685 569 l 685 740 l 468 740 l 468 932 l 165 932 l 165 740 l 28 740 l 28 569 l 165 569 l 165 296 b 511 -12 165 75 232 -12 b 685 -1 568 -12 633 -8 l 685 204 b 468 296 536 192 468 192 l 468 569 z m 689 1153 l 596 815 l 781 815 l 925 1153 z "},"ţ":{"ha":726,"x_min":0,"x_max":0,"o":"m 685 569 l 685 740 l 468 740 l 468 932 l 165 932 l 165 740 l 28 740 l 28 569 l 165 569 l 165 296 b 511 -12 165 75 232 -12 b 685 -1 568 -12 633 -8 l 685 204 b 468 296 536 192 468 192 l 468 569 z m 267 -92 l 211 -324 l 408 -324 l 556 -92 z "},"ú":{"ha":997,"x_min":0,"x_max":0,"o":"m 638 740 l 638 332 b 496 188 638 250 600 188 b 358 332 392 188 358 250 l 358 740 l 56 740 l 56 263 b 379 -21 56 74 174 -21 b 638 93 521 -21 608 56 l 638 0 l 942 0 l 942 740 z m 503 1021 l 385 815 l 608 815 l 806 1021 z "},"ŭ":{"ha":997,"x_min":0,"x_max":0,"o":"m 638 740 l 638 332 b 496 188 638 250 600 188 b 358 332 392 188 358 250 l 358 740 l 56 740 l 56 263 b 379 -21 56 74 174 -21 b 638 93 521 -21 608 56 l 638 0 l 942 0 l 942 740 z m 606 1021 b 497 940 600 967 565 940 b 390 1021 431 940 396 967 l 228 1021 b 497 808 228 892 310 808 b 768 1021 686 808 768 892 z "},"û":{"ha":997,"x_min":0,"x_max":0,"o":"m 638 740 l 638 332 b 496 188 638 250 600 188 b 358 332 392 188 358 250 l 358 740 l 56 740 l 56 263 b 379 -21 56 74 174 -21 b 638 93 521 -21 608 56 l 638 0 l 942 0 l 942 740 z m 858 815 l 653 1021 l 344 1021 l 139 815 l 403 815 l 499 922 l 594 815 z "},"ü":{"ha":997,"x_min":0,"x_max":0,"o":"m 638 740 l 638 332 b 496 188 638 250 600 188 b 358 332 392 188 358 250 l 358 740 l 56 740 l 56 263 b 379 -21 56 74 174 -21 b 638 93 521 -21 608 56 l 638 0 l 942 0 l 942 740 z m 321 1046 b 203 926 256 1046 203 992 b 321 808 203 861 256 808 b 440 926 386 808 440 861 b 321 1046 440 992 386 1046 z m 675 1046 b 557 926 610 1046 557 992 b 675 808 557 861 610 808 b 794 926 740 808 794 861 b 675 1046 794 992 740 1046 z "},"ű":{"ha":997,"x_min":0,"x_max":0,"o":"m 638 740 l 638 332 b 496 188 638 250 600 188 b 358 332 392 188 358 250 l 358 740 l 56 740 l 56 263 b 379 -21 56 74 174 -21 b 638 93 521 -21 608 56 l 638 0 l 942 0 l 942 740 z m 669 1021 l 551 815 l 775 815 l 972 1021 z m 310 1021 l 190 815 l 415 815 l 613 1021 z "},"ù":{"ha":997,"x_min":0,"x_max":0,"o":"m 638 740 l 638 332 b 496 188 638 250 600 188 b 358 332 392 188 358 250 l 358 740 l 56 740 l 56 263 b 379 -21 56 74 174 -21 b 638 93 521 -21 608 56 l 638 0 l 942 0 l 942 740 z m 507 1021 l 204 1021 l 403 815 l 626 815 z "},"ū":{"ha":997,"x_min":0,"x_max":0,"o":"m 638 740 l 638 332 b 496 188 638 250 600 188 b 358 332 392 188 358 250 l 358 740 l 56 740 l 56 263 b 379 -21 56 74 174 -21 b 638 93 521 -21 608 56 l 638 0 l 942 0 l 942 740 z m 178 985 l 178 839 l 821 839 l 821 985 z "},"ů":{"ha":997,"x_min":0,"x_max":0,"o":"m 638 740 l 638 332 b 496 188 638 250 600 188 b 358 332 392 188 358 250 l 358 740 l 56 740 l 56 263 b 379 -21 56 74 174 -21 b 638 93 521 -21 608 56 l 638 0 l 942 0 l 942 740 z m 499 1171 b 310 982 390 1171 310 1090 b 499 794 310 875 390 794 b 686 982 607 794 686 875 b 499 1171 686 1090 607 1171 z m 499 913 b 429 982 456 913 429 942 b 499 1051 429 1022 456 1051 b 568 982 540 1051 568 1022 b 499 913 568 942 540 913 z "},"ũ":{"ha":997,"x_min":0,"x_max":0,"o":"m 638 740 l 638 332 b 496 188 638 250 600 188 b 358 332 392 188 358 250 l 358 740 l 56 740 l 56 263 b 379 -21 56 74 174 -21 b 638 93 521 -21 608 56 l 638 0 l 942 0 l 942 740 z m 639 1015 b 606 960 639 989 640 960 b 340 1035 542 960 471 1035 b 188 821 235 1035 188 942 l 357 821 b 390 875 357 849 361 875 b 656 800 446 875 524 800 b 810 1015 786 800 810 924 z "},"ẃ":{"ha":1468,"x_min":0,"x_max":0,"o":"m 1142 740 l 1003 332 l 857 740 l 597 740 l 451 332 l 313 740 l 0 740 l 306 0 l 578 0 l 728 415 l 876 0 l 1149 0 l 1454 740 z m 738 1021 l 619 815 l 843 815 l 1040 1021 z "},"ŵ":{"ha":1468,"x_min":0,"x_max":0,"o":"m 1142 740 l 1003 332 l 857 740 l 597 740 l 451 332 l 313 740 l 0 740 l 306 0 l 578 0 l 728 415 l 876 0 l 1149 0 l 1454 740 z m 1086 815 l 881 1021 l 572 1021 l 367 815 l 631 815 l 726 922 l 822 815 z "},"ẅ":{"ha":1468,"x_min":0,"x_max":0,"o":"m 1142 740 l 1003 332 l 857 740 l 597 740 l 451 332 l 313 740 l 0 740 l 306 0 l 578 0 l 728 415 l 876 0 l 1149 0 l 1454 740 z m 549 1046 b 431 926 483 1046 431 992 b 549 808 431 861 483 808 b 668 926 614 808 668 861 b 549 1046 668 992 614 1046 z m 903 1046 b 785 926 838 1046 785 992 b 903 808 785 861 838 808 b 1022 926 968 808 1022 861 b 903 1046 1022 992 968 1046 z "},"ẁ":{"ha":1468,"x_min":0,"x_max":0,"o":"m 1142 740 l 1003 332 l 857 740 l 597 740 l 451 332 l 313 740 l 0 740 l 306 0 l 578 0 l 728 415 l 876 0 l 1149 0 l 1454 740 z m 719 1021 l 417 1021 l 615 815 l 839 815 z "},"ý":{"ha":989,"x_min":0,"x_max":0,"o":"m 664 740 l 493 301 l 313 740 l 0 740 l 354 10 l 224 -232 l 531 -232 l 975 740 z m 478 1021 l 360 815 l 583 815 l 781 1021 z "},"ŷ":{"ha":989,"x_min":0,"x_max":0,"o":"m 664 740 l 493 301 l 313 740 l 0 740 l 354 10 l 224 -232 l 531 -232 l 975 740 z m 853 815 l 647 1021 l 339 1021 l 133 815 l 397 815 l 493 922 l 589 815 z "},"ÿ":{"ha":989,"x_min":0,"x_max":0,"o":"m 664 740 l 493 301 l 313 740 l 0 740 l 354 10 l 224 -232 l 531 -232 l 975 740 z m 315 1046 b 197 926 250 1046 197 992 b 315 808 197 861 250 808 b 435 926 381 808 435 861 b 315 1046 435 992 381 1046 z m 669 1046 b 551 926 604 1046 551 992 b 669 808 551 861 604 808 b 789 926 735 808 789 861 b 669 1046 789 992 735 1046 z "},"ỳ":{"ha":989,"x_min":0,"x_max":0,"o":"m 664 740 l 493 301 l 313 740 l 0 740 l 354 10 l 224 -232 l 531 -232 l 975 740 z m 496 1021 l 193 1021 l 392 815 l 615 815 z "},"ź":{"ha":957,"x_min":0,"x_max":0,"o":"m 465 197 l 901 556 l 901 740 l 68 740 l 68 543 l 479 543 l 42 183 l 42 0 l 915 0 l 915 197 z m 483 1021 l 365 815 l 589 815 l 786 1021 z "},"ž":{"ha":957,"x_min":0,"x_max":0,"o":"m 465 197 l 901 556 l 901 740 l 68 740 l 68 543 l 479 543 l 42 183 l 42 0 l 915 0 l 915 197 z m 601 1021 l 506 914 l 410 1021 l 146 1021 l 351 815 l 660 815 l 865 1021 z "},"ż":{"ha":957,"x_min":0,"x_max":0,"o":"m 465 197 l 901 556 l 901 740 l 68 740 l 68 543 l 479 543 l 42 183 l 42 0 l 915 0 l 915 197 z m 506 1046 b 388 926 440 1046 388 992 b 506 808 388 861 440 808 b 625 926 571 808 625 861 b 506 1046 625 992 571 1046 z "},"ſ":{"ha":658,"x_min":0,"x_max":0,"o":"m 644 826 l 644 1015 b 465 1025 590 1019 522 1025 b 136 740 196 1025 136 906 l 14 740 l 14 569 l 136 569 l 136 0 l 439 0 l 439 740 b 644 826 439 842 518 840 z "},"…":{"ha":1265,"x_min":0,"x_max":0,"o":"m 192 281 b 42 131 108 281 42 213 b 192 -21 42 47 108 -21 b 343 131 275 -21 343 47 b 192 281 343 213 275 281 z m 632 281 b 482 131 549 281 482 213 b 632 -21 482 47 549 -21 b 783 131 715 -21 783 47 b 632 281 783 213 715 281 z m 1072 281 b 922 131 989 281 922 213 b 1072 -21 922 47 989 -21 b 1224 131 1156 -21 1224 47 b 1072 281 1224 213 1156 281 z "},"Í":{"ha":469,"x_min":0,"x_max":0,"o":"m 69 972 l 69 0 l 400 0 l 400 972 z m 226 1257 l 108 1051 l 332 1051 l 529 1257 z "},"Ĭ":{"ha":469,"x_min":0,"x_max":0,"o":"m 69 972 l 69 0 l 400 0 l 400 972 z m 343 1257 b 235 1176 338 1203 303 1176 b 128 1257 168 1176 133 1203 l -35 1257 b 235 1044 -35 1128 47 1044 b 506 1257 424 1044 506 1128 z "},"Î":{"ha":469,"x_min":0,"x_max":0,"o":"m 69 972 l 69 0 l 400 0 l 400 972 z m 594 1051 l 389 1257 l 81 1257 l -125 1051 l 139 1051 l 235 1158 l 331 1051 z "},"Ï":{"ha":469,"x_min":0,"x_max":0,"o":"m 69 972 l 69 0 l 400 0 l 400 972 z m 57 1282 b -61 1163 -8 1282 -61 1228 b 57 1044 -61 1097 -8 1044 b 176 1163 122 1044 176 1097 b 57 1282 176 1228 122 1282 z m 411 1282 b 293 1163 346 1282 293 1228 b 411 1044 293 1097 346 1044 b 531 1163 476 1044 531 1097 b 411 1282 531 1228 476 1282 z "},"Ì":{"ha":469,"x_min":0,"x_max":0,"o":"m 69 972 l 69 0 l 400 0 l 400 972 z m 243 1257 l -60 1257 l 139 1051 l 363 1051 z "},"Ī":{"ha":469,"x_min":0,"x_max":0,"o":"m 69 972 l 69 0 l 400 0 l 400 972 z m -86 1221 l -86 1075 l 557 1075 l 557 1221 z "},"Į":{"ha":469,"x_min":0,"x_max":0,"o":"m 260 -106 b 400 0 260 -47 351 -19 l 400 972 l 69 972 l 69 0 l 165 0 b 42 -153 115 -24 42 -72 b 253 -274 42 -251 142 -274 b 400 -251 322 -274 389 -257 l 400 -126 b 260 -106 358 -140 260 -162 z "},"Ĩ":{"ha":469,"x_min":0,"x_max":0,"o":"m 69 972 l 69 0 l 400 0 l 400 972 z m 375 1251 b 342 1196 375 1225 376 1196 b 76 1271 278 1196 207 1271 b -76 1057 -29 1271 -76 1178 l 93 1057 b 126 1111 93 1085 97 1111 b 392 1036 182 1111 260 1036 b 546 1251 522 1036 546 1160 z "},"í":{"ha":414,"x_min":0,"x_max":0,"o":"m 56 0 l 358 0 l 358 740 l 56 740 z m 213 1021 l 94 815 l 318 815 l 515 1021 z "},"ĭ":{"ha":414,"x_min":0,"x_max":0,"o":"m 56 0 l 358 0 l 358 740 l 56 740 z m 315 1021 b 207 940 310 967 275 940 b 100 1021 140 940 106 967 l -62 1021 b 207 808 -62 892 19 808 b 478 1021 396 808 478 892 z "},"î":{"ha":414,"x_min":0,"x_max":0,"o":"m 56 0 l 358 0 l 358 740 l 56 740 z m 567 815 l 361 1021 l 53 1021 l -153 815 l 111 815 l 207 922 l 303 815 z "},"ï":{"ha":414,"x_min":0,"x_max":0,"o":"m 56 0 l 358 0 l 358 740 l 56 740 z m 29 1046 b -89 926 -36 1046 -89 992 b 29 808 -89 861 -36 808 b 149 926 94 808 149 861 b 29 1046 149 992 94 1046 z m 383 1046 b 265 926 318 1046 265 992 b 383 808 265 861 318 808 b 503 926 449 808 503 861 b 383 1046 503 992 449 1046 z "},"ì":{"ha":414,"x_min":0,"x_max":0,"o":"m 56 0 l 358 0 l 358 740 l 56 740 z m 201 1021 l -101 1021 l 97 815 l 321 815 z "},"ī":{"ha":414,"x_min":0,"x_max":0,"o":"m 56 0 l 358 0 l 358 740 l 56 740 z m -114 985 l -114 839 l 529 839 l 529 985 z "},"ĩ":{"ha":414,"x_min":0,"x_max":0,"o":"m 56 0 l 358 0 l 358 740 l 56 740 z m 347 1015 b 314 960 347 989 349 960 b 49 1035 250 960 179 1035 b -104 821 -57 1035 -104 942 l 65 821 b 99 875 65 849 69 875 b 364 800 154 875 232 800 b 518 1015 494 800 518 924 z "},"A":{"ha":1279,"x_min":0,"x_max":0,"o":"m 936 0 l 1279 0 l 829 972 l 449 972 l 0 0 l 343 0 l 404 150 l 874 150 z m 496 375 l 639 726 l 783 375 z "}}}
